<?xml version="1.0" standalone="no"?>
<!DOCTYPE svg PUBLIC "-//W3C//DTD SVG 20010904//EN"
 "http://www.w3.org/TR/2001/REC-SVG-20010904/DTD/svg10.dtd">
<svg version="1.0" xmlns="http://www.w3.org/2000/svg"
 width="600.000000pt" height="600.000000pt" viewBox="0 0 600.000000 600.000000"
 preserveAspectRatio="xMidYMid meet">
<metadata>
Created by potrace 1.11, written by Peter Selinger 2001-2013
</metadata>
<g transform="translate(0.000000,600.000000) scale(0.100000,-0.100000)"
fill="#000000" stroke="none">
<path d="M1140 5769 c0 -5 5 -7 10 -4 6 3 10 8 10 11 0 2 -4 4 -10 4 -5 0 -10
-5 -10 -11z"/>
<path d="M3425 5760 c3 -5 8 -10 11 -10 2 0 4 5 4 10 0 6 -5 10 -11 10 -5 0
-7 -4 -4 -10z"/>
<path d="M3365 5690 c-3 -5 1 -10 10 -10 9 0 13 5 10 10 -3 6 -8 10 -10 10 -2
0 -7 -4 -10 -10z"/>
<path d="M3817 5603 c-42 -70 -98 -187 -100 -212 -2 -17 -7 -34 -10 -38 -4 -3
-7 -32 -7 -63 0 -64 20 -94 68 -105 40 -8 47 -6 95 39 23 21 52 42 64 47 28
10 50 44 58 87 7 44 -13 50 -82 27 -63 -22 -72 -16 -91 51 -12 43 -9 84 8 94
14 9 24 66 12 74 -6 3 -13 3 -15 -1z"/>
<path d="M2960 5588 c0 -13 30 -77 39 -83 12 -7 -16 65 -30 80 -5 5 -9 6 -9 3z"/>
<path d="M2270 5509 c-22 -9 -23 -12 -9 -22 9 -7 16 -15 17 -20 3 -28 16 -72
34 -109 11 -23 22 -62 23 -86 3 -49 14 -66 37 -57 21 8 41 54 30 69 -11 14
-22 58 -28 111 -5 43 -19 79 -43 108 -16 19 -25 20 -61 6z"/>
<path d="M1305 5465 c41 -36 55 -42 55 -26 0 13 -64 61 -81 61 -8 0 4 -16 26
-35z"/>
<path d="M1160 5482 c0 -18 22 -62 32 -62 5 0 2 10 -6 23 -8 12 -15 26 -15 30
1 5 -2 11 -5 15 -3 3 -6 0 -6 -6z"/>
<path d="M936 5413 c-14 -15 -5 -43 14 -43 13 0 20 7 20 19 0 19 -23 35 -34
24z"/>
<path d="M1480 5365 c0 -9 40 -85 45 -85 2 0 -3 20 -13 45 -9 25 -20 45 -24
45 -4 0 -8 -2 -8 -5z"/>
<path d="M3410 5240 c-17 -15 -21 -23 -12 -32 17 -17 42 -1 42 27 0 30 -1 30
-30 5z"/>
<path d="M3042 5220 c14 -22 24 -19 15 5 -4 8 -11 15 -17 15 -6 0 -6 -7 2 -20z"/>
<path d="M1552 5173 c-8 -17 -7 -72 3 -100 7 -20 25 -15 25 6 0 11 4 22 9 25
11 7 20 56 14 73 -7 19 -41 16 -51 -4z"/>
<path d="M3460 5144 c0 -8 5 -12 10 -9 6 3 10 10 10 16 0 5 -4 9 -10 9 -5 0
-10 -7 -10 -16z"/>
<path d="M3498 5135 c-4 -19 -1 -25 12 -25 13 0 16 6 12 25 -2 14 -8 25 -12
25 -4 0 -10 -11 -12 -25z"/>
<path d="M3365 5141 c-3 -5 -1 -12 5 -16 5 -3 10 1 10 9 0 18 -6 21 -15 7z"/>
<path d="M3550 5139 c0 -5 5 -7 10 -4 6 3 10 8 10 11 0 2 -4 4 -10 4 -5 0 -10
-5 -10 -11z"/>
<path d="M4049 5123 c-13 -16 -12 -17 4 -4 9 7 17 15 17 17 0 8 -8 3 -21 -13z"/>
<path d="M2645 5100 c8 -24 34 -70 41 -70 1 0 -4 17 -12 38 -19 45 -40 69 -29
32z"/>
<path d="M3400 5100 c-8 -5 -11 -12 -8 -16 10 -9 38 3 38 16 0 12 -10 13 -30
0z"/>
<path d="M2447 5094 c-7 -7 44 -83 56 -84 13 0 8 22 -14 56 -20 34 -30 40 -42
28z"/>
<path d="M3513 5077 c-1 -12 -4 -56 -7 -98 -3 -43 0 -92 6 -113 9 -30 9 -39
-5 -54 -18 -20 -21 -40 -11 -66 5 -13 9 -14 20 -5 8 6 14 10 15 8 0 -2 3 -20
6 -39 6 -43 19 -60 48 -60 36 0 37 -12 3 -41 -36 -29 -43 -66 -18 -86 21 -17
47 -16 54 3 3 8 11 12 17 8 8 -5 9 -3 5 5 -5 7 -1 18 10 25 10 8 15 20 11 30
-4 9 -2 16 3 16 6 0 10 9 10 20 0 22 -20 26 -38 8 -9 -9 -12 -6 -12 16 0 19 4
27 13 23 12 -5 14 1 18 58 2 35 7 31 19 -15 6 -22 14 -40 19 -40 9 0 6 74 -4
90 -4 6 1 18 11 25 15 11 17 18 8 32 -14 23 -54 30 -54 10 0 -11 -10 -14 -39
-12 -49 3 -57 9 -77 46 -10 21 -15 60 -16 125 0 52 -3 96 -7 98 -4 3 -8 -5 -8
-17z"/>
<path d="M3060 5081 c0 -6 5 -13 10 -16 6 -3 10 1 10 9 0 9 -4 16 -10 16 -5 0
-10 -4 -10 -9z"/>
<path d="M716 5062 c-3 -5 8 -24 24 -43 33 -38 38 -33 14 17 -16 34 -28 42
-38 26z"/>
<path d="M961 5023 c1 -14 70 -66 77 -58 4 3 -8 20 -26 36 -31 28 -53 37 -51
22z"/>
<path d="M1284 5019 c-11 -19 13 -34 31 -19 13 11 13 15 3 21 -18 12 -26 11
-34 -2z"/>
<path d="M1815 5020 c3 -5 8 -10 11 -10 2 0 4 5 4 10 0 6 -5 10 -11 10 -5 0
-7 -4 -4 -10z"/>
<path d="M3245 4980 c-3 -5 -1 -10 4 -10 6 0 11 5 11 10 0 6 -2 10 -4 10 -3 0
-8 -4 -11 -10z"/>
<path d="M3857 4973 c-13 -12 -7 -33 8 -33 8 0 15 9 15 20 0 20 -11 26 -23 13z"/>
<path d="M1730 4932 c-41 -41 -40 -76 4 -116 30 -27 40 -50 45 -99 1 -5 5 -6
9 -3 9 5 8 59 -2 74 -3 6 5 12 17 16 48 12 65 92 28 127 -36 34 -67 34 -101 1z"/>
<path d="M610 4925 c0 -18 5 -25 20 -25 24 0 28 35 4 44 -23 9 -24 8 -24 -19z"/>
<path d="M2449 4904 c-10 -12 -9 -41 1 -79 1 -5 2 -29 1 -52 -1 -34 -5 -43
-18 -43 -10 0 -35 -16 -55 -35 -21 -18 -38 -31 -38 -28 0 3 -10 -2 -23 -10
-22 -14 -23 -14 -22 6 1 12 -1 27 -6 32 -4 6 -7 12 -7 15 1 3 -10 29 -23 57
-26 58 -47 73 -66 47 -9 -13 -8 -25 7 -63 31 -78 51 -111 66 -111 8 0 14 -5
14 -11 0 -5 -4 -7 -10 -4 -5 3 -10 3 -10 -2 0 -10 -96 -11 -106 0 -16 15 -26
6 -20 -18 4 -16 1 -32 -6 -40 -26 -29 -33 -40 -34 -57 -1 -10 3 -18 8 -18 6 0
6 -6 -1 -14 -9 -11 -10 -20 -1 -35 8 -15 8 -21 0 -21 -7 0 -5 -8 4 -21 10 -15
12 -28 6 -45 -7 -18 -6 -24 4 -24 13 0 26 -19 32 -47 1 -7 9 -20 18 -29 9 -8
16 -19 16 -24 0 -5 5 -21 12 -37 6 -15 11 -31 10 -35 -2 -8 49 -25 105 -33 23
-4 48 -14 55 -23 11 -13 11 -14 -2 -7 -13 7 -13 6 -2 -7 10 -13 9 -16 -8 -21
-26 -7 -27 -48 -2 -70 22 -20 36 -22 26 -4 -5 9 -4 9 6 0 7 -7 10 -19 6 -30
-7 -17 -8 -17 -17 0 -12 20 -32 22 -51 4 -52 -49 -105 -87 -122 -87 -20 1 -20
1 2 20 13 11 21 24 18 29 -4 5 3 12 14 16 26 8 42 65 23 83 -18 18 -16 24 5
18 9 -3 23 -2 30 3 10 6 10 11 -3 21 -14 12 -18 11 -25 0 -7 -12 -10 -11 -16
3 -8 22 -33 22 -41 0 -4 -10 -14 -24 -24 -30 -18 -14 -31 -73 -16 -73 6 0 3
-8 -6 -17 -23 -26 -23 -28 -9 -45 10 -13 10 -17 -3 -22 -8 -3 -15 -1 -15 4 0
6 -7 10 -15 10 -8 0 -15 -4 -15 -9 0 -5 -7 -11 -15 -15 -13 -5 -14 -2 -4 17 7
12 16 25 22 28 5 4 6 16 2 28 -7 22 -8 22 -26 5 -12 -11 -16 -20 -9 -24 6 -4
2 -14 -12 -26 -19 -16 -20 -16 -9 -1 8 9 11 20 8 23 -3 3 -12 -3 -19 -15 -7
-12 -16 -21 -21 -21 -4 0 -6 3 -4 8 3 4 -1 12 -8 19 -11 10 -15 10 -18 0 -3
-7 -6 -2 -6 11 -1 12 -1 25 -2 30 0 4 -9 12 -19 17 -10 6 -19 12 -19 15 0 3
-4 18 -10 33 -14 35 -14 40 -1 32 5 -3 18 -1 27 5 16 10 15 11 -4 7 -13 -3
-23 0 -23 6 0 6 -3 7 -7 4 -3 -4 -12 -2 -20 4 -10 9 -13 8 -13 -5 0 -10 -4
-15 -9 -12 -4 3 -13 -5 -19 -18 -8 -18 -7 -30 3 -50 17 -31 2 -35 -19 -4 -10
14 -12 26 -6 33 5 7 7 15 4 18 -4 3 1 13 10 22 20 20 20 35 2 61 -13 17 -18
18 -47 7 -24 -9 -36 -10 -46 -1 -10 8 -18 6 -34 -8 -11 -10 -26 -19 -32 -20
-7 0 -20 -2 -29 -2 -21 -2 -93 -72 -74 -72 7 0 21 -9 31 -20 14 -15 26 -19 46
-15 23 5 27 3 25 -12 -4 -25 15 -52 31 -46 7 3 13 0 13 -7 0 -6 -4 -8 -10 -5
-5 3 -10 -2 -10 -11 0 -16 -1 -16 -15 2 -13 16 -14 16 -9 2 3 -10 2 -18 -3
-18 -5 0 -18 -8 -29 -19 -45 -41 -60 -43 -92 -10 -20 21 -32 27 -37 19 -5 -8
-18 0 -39 23 -32 35 -86 57 -86 35 0 -6 12 -24 27 -40 20 -21 23 -30 15 -41
-13 -16 2 -37 26 -37 23 0 42 -32 31 -51 -15 -29 38 -50 67 -27 8 5 14 3 18
-7 3 -8 11 -15 17 -15 8 0 7 5 -2 17 -13 15 -12 15 9 2 12 -8 22 -16 22 -20 0
-9 -34 -7 -47 3 -16 13 -32 2 -31 -20 1 -9 -2 -32 -6 -49 -6 -27 -5 -33 9 -33
8 0 18 -7 21 -15 9 -23 52 -18 81 11 22 22 31 25 56 17 29 -8 29 -9 13 -26
-16 -15 -16 -17 -1 -17 10 0 13 -5 9 -12 -4 -6 0 -17 10 -23 13 -10 6 -12 -41
-10 -32 1 -69 5 -83 7 -14 3 -19 3 -12 1 6 -3 12 -9 12 -15 0 -5 -7 -7 -16 -4
-9 3 -20 6 -25 6 -6 0 -8 4 -4 9 3 5 -9 3 -27 -6 -51 -25 -59 -33 -48 -52 6
-13 4 -22 -11 -35 -20 -16 -39 -14 -39 5 0 20 -27 38 -38 27 -7 -7 -19 -5 -39
9 -15 10 -45 28 -66 38 -21 11 -52 32 -68 48 -17 15 -36 27 -44 27 -7 0 -16 7
-19 16 -3 9 -13 14 -20 11 -8 -3 -17 1 -20 9 -9 24 -25 6 -21 -24 1 -15 -2
-33 -9 -41 -9 -12 -8 -13 7 -8 18 7 51 -15 45 -30 -2 -4 11 -11 27 -16 45 -13
94 -38 139 -71 l40 -29 -25 -20 c-13 -10 -23 -21 -21 -24 2 -3 1 -7 -2 -11 -3
-3 -6 0 -6 6 0 7 -5 12 -10 12 -6 0 -5 -8 2 -20 7 -10 15 -16 18 -12 10 13 45
29 56 25 7 -2 10 -13 7 -23 -3 -11 0 -20 6 -20 6 0 11 8 11 17 0 9 3 13 6 10
4 -3 15 -2 25 4 15 7 19 6 19 -6 0 -8 -4 -15 -9 -15 -11 0 -7 -32 6 -53 4 -6
8 -18 10 -26 1 -8 8 -18 15 -22 9 -6 6 -9 -10 -9 -12 0 -25 -7 -29 -15 -8 -24
7 -32 21 -12 17 22 40 23 32 0 -8 -20 10 -33 48 -33 16 0 27 -3 23 -6 -8 -8
18 -34 35 -35 7 -1 2 -4 -12 -8 -19 -6 -31 -3 -48 13 -20 17 -24 18 -32 6 -5
-8 -10 -18 -10 -21 0 -4 -12 -9 -27 -12 -20 -4 -31 0 -41 15 -8 10 -20 17 -27
14 -7 -2 -18 1 -24 7 -8 8 -11 8 -11 -1 0 -6 9 -16 20 -22 11 -6 20 -15 20
-21 0 -6 -4 -7 -10 -4 -5 3 -10 2 -10 -3 0 -6 7 -13 16 -16 8 -3 12 -2 9 4 -3
6 -1 10 5 10 7 0 14 -9 17 -20 6 -22 4 -21 56 -25 23 -2 43 -10 52 -21 7 -11
17 -15 22 -10 4 5 2 11 -4 13 -20 7 -15 23 6 23 14 0 17 -6 13 -25 -4 -25 -35
-35 -47 -15 -3 6 -36 10 -72 10 -58 0 -64 2 -52 16 10 13 10 17 -1 24 -20 12
-31 2 -26 -23 4 -22 3 -22 -107 -17 l-111 5 -8 30 c-10 38 -17 78 -24 140 -7
55 -18 75 -44 75 -29 0 -30 12 0 36 16 14 27 32 25 42 -2 9 -4 22 -4 27 -2 22
-46 14 -68 -13 -28 -33 -28 -43 -4 -71 19 -22 19 -51 0 -51 -5 0 -12 -18 -15
-40 -4 -22 -10 -40 -13 -40 -4 0 -16 -6 -26 -14 -19 -14 -19 -15 -1 -34 18
-21 51 -19 39 2 -3 6 -3 8 2 4 4 -4 15 -3 24 1 26 14 61 -6 77 -44 15 -36 11
-61 -7 -50 -5 4 -9 1 -9 -4 0 -6 7 -11 15 -11 12 0 15 -12 14 -57 -1 -32 0
-62 1 -68 6 -21 8 -30 9 -42 0 -7 5 -13 10 -13 5 0 8 8 7 18 -1 14 7 17 54 15
67 -2 181 -12 198 -18 6 -2 12 0 12 5 0 6 -10 10 -22 11 -13 0 -32 2 -43 4
-11 3 -41 6 -68 7 -33 2 -46 7 -42 16 5 13 -21 17 -28 4 -3 -4 -20 -7 -39 -6
-31 1 -33 3 -32 35 1 19 3 46 5 61 l3 26 176 -3 c96 -2 186 -6 200 -9 14 -4
39 -2 55 5 17 7 39 14 50 15 11 1 37 5 59 10 37 7 38 6 25 -14 -11 -17 -10
-27 4 -63 9 -23 15 -45 12 -49 -2 -3 11 -6 30 -5 67 2 96 61 55 112 -21 26
-19 43 5 43 9 0 12 -6 9 -15 -8 -21 36 -61 47 -43 15 24 22 -3 12 -47 -12 -54
2 -61 16 -7 14 49 14 49 -9 72 -12 12 -18 25 -15 30 11 18 24 11 31 -15 3 -14
17 -34 30 -44 13 -10 24 -28 24 -40 0 -12 5 -21 10 -21 19 0 10 -29 -15 -48
-17 -13 -23 -26 -20 -38 5 -15 2 -14 -11 4 -20 27 -45 28 -69 2 -14 -16 -15
-23 -6 -34 10 -12 9 -13 -8 -9 -22 6 -29 -11 -10 -23 6 -3 8 -17 5 -30 -4 -13
-3 -23 1 -22 8 3 13 -5 13 -21 0 -5 -12 -12 -26 -15 -20 -5 -25 -12 -21 -26 3
-11 0 -20 -5 -20 -6 0 -16 -7 -22 -15 -13 -17 -202 -57 -234 -49 -12 4 -22 2
-22 -4 0 -21 -110 -44 -173 -37 l-60 7 6 -29 c5 -25 1 -32 -24 -47 -16 -9 -29
-12 -29 -7 0 15 -27 14 -36 0 -4 -7 4 -20 17 -30 25 -19 41 -17 33 5 -6 14 44
39 124 61 28 8 76 22 105 30 28 8 69 17 89 20 21 3 53 12 72 20 27 12 126 18
126 9 0 -2 -17 -8 -37 -15 -42 -13 -54 -25 -46 -46 6 -15 59 -9 80 9 16 13 18
11 27 -19 6 -17 1 -25 -21 -37 -15 -8 -23 -15 -18 -16 6 0 23 7 38 15 15 8 43
19 62 24 32 9 37 7 56 -20 12 -17 19 -33 16 -35 -11 -11 -45 7 -50 26 -3 11
-9 20 -15 20 -13 0 -59 -42 -64 -60 -13 -37 39 -69 59 -37 11 19 41 28 49 16
7 -12 -33 -49 -53 -49 -7 0 -13 -6 -13 -12 0 -7 -23 -29 -51 -48 -28 -19 -59
-42 -68 -50 -9 -8 -35 -28 -56 -44 -45 -34 -72 -56 -126 -106 -20 -19 -71 -66
-113 -104 -73 -66 -92 -96 -62 -96 7 0 31 17 53 38 119 113 276 239 293 235 5
-2 7 4 4 12 -4 8 -2 15 4 15 5 0 31 20 58 45 26 25 51 45 56 45 5 0 14 4 21
10 7 5 27 21 44 36 28 22 32 30 27 57 -5 30 -4 31 12 15 9 -9 17 -33 18 -55 1
-34 -1 -38 -23 -37 -22 1 -23 0 -6 -12 10 -7 22 -11 27 -8 14 9 38 -16 38 -41
0 -18 -8 -25 -45 -34 -50 -13 -65 -33 -46 -63 7 -11 11 -21 9 -21 -52 -26 -56
-47 -11 -59 18 -5 35 -13 38 -18 3 -6 21 -10 40 -10 30 0 36 -5 65 -57 32 -59
39 -109 25 -188 -4 -26 -4 -27 5 -7 5 12 12 44 16 70 3 26 10 55 15 64 5 9 9
30 9 45 0 16 6 38 14 48 13 18 14 18 27 -3 9 -15 24 -22 44 -22 18 0 39 -9 52
-23 20 -22 29 -23 132 -22 88 1 114 4 129 18 10 9 23 17 29 17 13 0 25 -27 14
-32 -21 -8 -20 -45 0 -67 18 -19 20 -31 16 -69 -4 -31 -3 -40 3 -27 5 11 9 29
9 40 2 46 17 51 60 21 36 -25 50 -29 133 -31 51 -2 102 -5 113 -8 11 -3 27 -6
36 -6 9 -1 20 -8 23 -17 4 -10 2 -13 -6 -8 -7 5 -8 3 -2 -7 9 -15 13 -65 14
-163 0 -45 3 -57 14 -53 8 3 16 -2 19 -15 6 -21 -39 -82 -54 -72 -5 3 -6 -2
-3 -11 4 -11 2 -14 -9 -9 -8 3 -18 0 -22 -6 -3 -6 -1 -9 5 -8 7 2 13 -11 15
-29 2 -21 -1 -30 -8 -26 -6 3 -7 1 -3 -6 4 -6 12 -9 17 -6 5 4 9 0 9 -9 0 -8
5 -16 10 -18 6 -2 12 -13 13 -25 0 -12 5 -19 9 -17 4 3 8 -8 8 -24 0 -18 6
-32 15 -36 23 -8 36 -49 21 -61 -20 -16 -38 -54 -30 -67 4 -6 -10 -25 -32 -43
l-39 -33 35 -21 c32 -19 35 -20 40 -3 5 16 20 19 73 14 33 -4 57 -61 57 -137
0 -43 -5 -76 -12 -84 -11 -11 -10 -13 4 -8 12 4 15 2 12 -7 -3 -8 -1 -17 5
-20 5 -4 10 2 10 11 0 10 2 50 4 88 3 43 0 95 -9 135 -8 36 -16 83 -18 105 -7
73 -15 91 -44 93 -40 3 -46 17 -15 37 15 10 35 26 44 36 12 14 19 15 27 7 16
-16 15 -28 -3 -28 -8 0 -19 -9 -25 -20 -12 -22 -6 -27 37 -33 11 -2 28 -9 37
-16 9 -7 27 -11 41 -9 19 4 27 -1 39 -26 19 -41 58 -86 74 -86 7 0 12 3 12 8
0 8 -29 54 -40 62 -4 3 -11 14 -17 24 -9 16 -5 27 19 57 33 41 30 62 -7 53
-20 -5 -23 -3 -18 15 3 13 -1 29 -11 40 -9 10 -14 20 -12 22 3 3 -11 4 -30 4
-42 -2 -46 3 -34 44 5 17 5 31 2 31 -4 0 -7 17 -7 38 1 42 -10 63 -29 56 -7
-3 -26 1 -42 7 -16 7 -33 11 -37 10 -5 -1 -5 4 -1 11 6 10 4 11 -7 1 -16 -15
-43 -17 -34 -3 3 6 1 10 -5 10 -6 0 -9 4 -6 9 3 5 -1 11 -8 14 -23 9 -15 43
15 63 30 20 38 45 34 110 -3 41 -2 42 21 32 17 -8 31 -8 51 1 24 10 28 17 28
51 0 38 -5 44 -31 41 -19 -2 -39 28 -27 40 7 7 19 3 36 -15 26 -26 63 -26 53
0 -4 10 0 11 19 2 14 -6 25 -19 25 -29 0 -11 10 -21 24 -25 44 -11 54 -33 57
-119 3 -103 9 -155 19 -155 13 0 20 44 8 51 -17 11 -17 59 0 59 8 0 12 -6 9
-13 -3 -7 4 -19 14 -25 29 -18 73 12 58 39 -7 14 -6 19 3 19 9 0 9 3 -2 10
-10 6 -15 29 -17 70 -2 60 -1 62 28 72 18 6 29 17 29 28 0 15 6 17 39 13 37
-5 40 -4 47 23 5 18 2 37 -8 54 -8 14 -14 37 -12 51 1 13 3 30 3 37 1 8 6 12
13 10 14 -5 20 -36 8 -43 -11 -7 -1 -47 15 -60 7 -6 15 -24 17 -40 2 -22 11
-34 36 -45 l32 -16 -30 -17 c-30 -18 -39 -40 -20 -52 6 -4 8 -11 5 -16 -4 -5
-1 -9 5 -9 6 0 18 -16 26 -35 15 -36 40 -46 50 -21 3 8 1 24 -6 35 -16 30 -18
203 -2 209 6 2 12 10 12 18 0 9 5 12 10 9 6 -3 10 1 10 9 0 9 4 16 8 16 5 0 9
-7 9 -15 0 -8 -4 -15 -8 -15 -5 0 -13 -9 -19 -19 -14 -26 7 -71 32 -71 10 0
29 -7 42 -16 28 -18 45 -2 25 22 -7 8 -13 26 -14 39 0 14 -9 31 -20 39 -20 15
-20 15 1 10 14 -4 26 -20 34 -47 18 -55 27 -66 51 -60 21 6 43 38 35 52 -3 5
1 14 9 21 8 7 15 21 15 32 0 15 4 18 18 12 9 -4 29 -7 45 -8 16 0 27 -6 27
-14 0 -7 4 -11 9 -8 5 3 11 -1 15 -9 3 -8 12 -15 21 -15 17 0 18 5 6 29 -8 15
-5 17 19 17 16 -1 31 -3 34 -6 9 -9 15 -60 7 -60 -12 0 -31 -48 -25 -63 3 -8
-10 -26 -31 -42 -36 -27 -36 -27 -16 -46 23 -22 51 -25 51 -6 0 17 74 14 95
-3 8 -7 15 -29 15 -49 0 -20 4 -41 9 -46 6 -8 20 -146 21 -217 0 -5 4 -8 9 -8
13 0 20 37 9 48 -9 9 -11 47 -6 111 2 17 12 28 38 39 41 17 50 28 50 64 0 33
-40 66 -75 63 -14 -2 -25 1 -25 6 0 15 -2 23 -11 47 -5 14 -5 22 2 22 6 0 7 5
2 13 -9 14 -10 19 -12 52 -1 17 -10 29 -28 38 -35 15 -46 29 -30 39 20 13 34
9 40 -12 3 -13 14 -20 29 -20 13 0 34 -7 46 -16 13 -9 34 -14 47 -12 19 4 27
-2 44 -36 25 -50 67 -91 76 -76 4 6 -2 22 -12 37 -56 79 -55 75 -29 103 14 14
26 34 28 45 2 16 -2 20 -23 18 -22 -1 -25 2 -22 21 9 47 -57 74 -120 49 -38
-16 -48 -38 -25 -61 10 -10 10 -15 -2 -22 -9 -6 -16 -6 -18 0 -2 6 -11 10 -19
10 -12 0 -13 3 -4 14 6 7 8 22 4 31 -5 14 -3 16 8 10 11 -6 12 -5 2 5 -7 7
-25 15 -41 16 -22 3 -32 -2 -42 -22 -9 -16 -19 -23 -29 -18 -9 3 -25 7 -35 10
-26 5 -30 11 -45 61 -11 41 -12 42 -50 37 -22 -2 -42 0 -46 6 -3 6 0 7 10 4 8
-4 22 -1 30 6 8 7 23 9 36 5 18 -6 16 -1 -12 26 -37 36 -47 40 -67 26 -22 -17
-24 1 -3 22 12 12 21 26 21 31 0 6 5 10 11 10 6 0 9 6 6 14 -8 19 21 57 41 55
10 -1 19 0 22 1 3 1 19 3 37 5 52 4 84 15 78 25 -3 6 -1 10 6 10 7 0 9 3 6 7
-4 3 1 12 11 20 12 10 14 16 5 19 -28 12 -13 30 22 26 19 -2 42 1 50 8 8 6 22
9 33 6 42 -14 102 -14 102 0 0 10 11 13 44 9 38 -4 45 -1 54 20 8 17 8 26 -1
34 -13 10 -86 23 -127 22 -18 -1 -21 2 -12 11 9 9 4 17 -19 34 -27 20 -29 23
-13 32 11 6 15 17 11 31 -6 24 1 26 28 7 13 -9 28 -11 43 -5 39 15 27 33 -38
56 -53 19 -73 17 -67 -7 3 -11 0 -20 -6 -20 -7 0 -21 -11 -32 -23 -17 -21 -24
-22 -65 -15 -25 5 -58 11 -75 15 -16 3 -35 12 -42 20 -6 8 -16 12 -22 8 -6 -3
-11 -1 -11 4 0 6 11 12 25 12 14 1 30 3 35 4 6 1 15 3 20 4 6 0 10 6 10 12 0
6 -6 9 -14 6 -8 -3 -31 -9 -52 -13 -27 -5 -35 -4 -30 5 4 6 15 10 24 9 9 -2
21 7 26 18 5 12 18 27 28 33 15 9 18 8 19 -6 1 -10 1 -21 0 -25 -1 -11 25 -3
50 15 22 15 23 17 7 30 -10 8 -15 17 -11 20 10 11 -14 8 -42 -5 -14 -6 -25
-15 -25 -20 0 -4 -10 -8 -23 -8 -13 0 -29 -6 -36 -12 -11 -11 -14 -10 -18 0
-3 6 -9 10 -14 6 -5 -3 -9 2 -9 11 0 17 68 62 85 57 6 -2 4 2 -2 9 -10 10 -16
10 -25 1 -14 -14 -28 -16 -28 -3 0 5 8 11 18 15 9 3 23 9 31 12 9 4 11 2 7 -5
-4 -6 -2 -11 3 -11 6 0 11 5 11 10 0 6 11 8 28 4 24 -7 25 -5 14 9 -11 13 -10
16 10 22 13 5 24 3 26 -4 2 -6 8 -11 14 -11 6 0 8 6 5 13 -4 10 2 13 21 11 15
-2 19 -1 10 2 -10 3 -18 12 -18 20 0 8 8 14 18 15 10 0 12 3 4 6 -16 6 -6 23
14 23 8 0 12 -4 9 -10 -3 -6 1 -7 9 -4 9 3 16 10 16 16 0 5 5 6 10 3 6 -4 10
5 10 20 0 45 36 48 152 14 38 -12 108 -5 108 11 0 6 -7 10 -16 10 -8 0 -13 4
-9 10 3 5 12 7 20 3 8 -3 15 0 15 7 0 6 -5 8 -11 5 -6 -4 -13 2 -16 13 -7 30
-55 44 -82 26 -12 -9 -21 -24 -21 -35 0 -19 -7 -23 -48 -21 -37 2 -103 35 -98
49 3 8 -1 10 -11 6 -9 -4 -14 -2 -10 3 3 5 -7 10 -21 9 -16 0 -26 5 -24 13 1
6 -2 12 -8 12 -5 0 -10 -4 -10 -10 0 -5 -7 -10 -16 -10 -11 0 -14 5 -9 18 5
14 4 15 -6 5 -18 -18 -29 -16 -29 6 0 10 7 21 15 25 8 3 15 11 15 18 0 9 -3 9
-12 0 -22 -22 -31 -12 -13 15 17 25 17 27 -1 40 -17 12 -17 13 3 13 11 0 24 7
27 16 8 22 9 22 -21 16 -16 -2 -26 -2 -23 1 3 3 19 7 35 10 57 9 85 19 79 28
-3 5 -9 7 -14 4 -5 -3 -29 -9 -55 -14 -41 -8 -47 -6 -57 12 -9 18 -6 24 18 44
16 13 24 23 18 23 -5 0 -15 -5 -22 -12 -9 -9 -12 -9 -12 1 0 7 -4 9 -10 6 -12
-8 -13 5 -1 24 5 8 14 10 21 6 9 -5 11 -4 6 4 -4 6 0 14 11 18 10 4 29 17 43
30 14 13 28 23 32 23 5 0 8 5 8 10 0 7 -6 7 -19 1 -10 -6 -22 -7 -26 -3 -5 4
-5 2 -2 -4 8 -15 -18 -38 -33 -29 -5 3 -10 1 -10 -4 0 -6 -7 -11 -15 -11 -8 0
-15 -4 -15 -8 0 -5 -11 -14 -25 -20 -27 -12 -33 -4 -12 17 10 11 8 11 -11 1
-21 -10 -23 -10 -13 7 25 46 148 156 166 149 7 -2 32 18 55 45 24 28 69 68
101 90 33 22 59 45 59 51 0 6 -10 2 -22 -9 -35 -31 -44 -33 -45 -12 -1 11 2
17 6 15 4 -3 8 1 8 9 0 10 -5 11 -18 4 -10 -5 -21 -14 -24 -19 -3 -6 -17 -10
-31 -10 -13 0 -24 -6 -24 -12 0 -14 -65 -71 -92 -81 -10 -3 -18 -11 -18 -17 0
-5 -5 -10 -10 -10 -6 0 -28 -13 -50 -29 -25 -18 -48 -27 -60 -24 -18 5 -18 7
-3 29 8 13 20 24 27 24 6 0 3 7 -7 14 -17 13 -17 15 7 39 25 25 25 25 28 3 4
-25 36 -32 62 -13 35 26 -3 79 -42 58 -15 -8 -17 -3 -18 31 0 30 -6 44 -24 58
-27 20 -27 21 13 38 36 15 34 38 -4 46 -17 3 -28 10 -24 15 8 14 -8 21 -24 11
-11 -6 -11 -15 -2 -41 9 -25 8 -34 -1 -40 -7 -4 -15 -6 -19 -3 -4 2 -5 -20 -2
-49 6 -58 -11 -112 -27 -86 -5 7 -7 16 -4 20 2 4 -5 9 -16 12 -11 3 -20 1 -20
-5 0 -5 -5 -6 -11 -2 -7 4 -9 0 -5 -14 4 -13 1 -22 -9 -26 -12 -4 -14 0 -9 18
4 17 -1 30 -20 48 l-27 24 25 23 c14 13 23 28 20 32 -3 5 2 9 10 9 9 0 16 6
16 14 0 8 7 17 16 20 13 5 14 9 4 21 -7 8 -14 30 -17 49 -6 47 27 82 92 97 85
19 91 24 105 72 15 56 4 97 -32 114 -38 19 -49 37 -52 90 -2 26 -13 70 -24 98
-15 39 -28 54 -61 72 -45 23 -67 22 -73 -5 -7 -28 2 -50 23 -55 13 -4 19 -14
19 -35 0 -17 4 -33 9 -37 6 -3 8 -14 6 -25 -2 -11 2 -26 8 -33 17 -18 34 -46
58 -94 l21 -43 -27 -32 c-15 -17 -31 -43 -36 -56 -5 -13 -13 -21 -18 -18 -5 4
-7 -2 -4 -13 3 -10 0 -22 -6 -25 -6 -4 -11 -2 -11 3 0 22 -41 51 -70 51 -27 0
-30 3 -30 29 0 17 5 33 10 36 6 3 10 0 10 -9 0 -19 21 -25 41 -13 15 9 14 14
-12 40 -30 30 -38 44 -16 30 6 -4 4 5 -5 19 -17 26 -17 27 14 57 18 17 27 31
20 31 -6 0 -21 -13 -34 -30 -12 -16 -29 -30 -38 -30 -22 0 -44 -43 -37 -70 4
-16 1 -24 -12 -27 -12 -3 -17 -11 -14 -23 3 -11 -6 -33 -20 -52 -22 -29 -24
-36 -13 -56 11 -21 14 -22 28 -9 8 8 20 12 27 8 19 -12 -19 -72 -42 -65 -9 3
-30 -1 -46 -9 -25 -13 -31 -13 -35 -1 -6 16 -36 19 -36 4 0 -5 -4 -10 -10 -10
-5 0 -10 7 -10 16 0 8 -4 13 -9 10 -4 -3 -6 -18 -3 -32 4 -23 2 -26 -13 -20
-18 6 -45 -9 -45 -25 0 -14 28 -11 33 4 3 8 7 6 12 -6 5 -12 1 -24 -14 -38
-17 -16 -19 -23 -9 -39 7 -10 16 -16 20 -14 16 10 29 -7 17 -22 -6 -7 -15 -11
-21 -8 -5 3 0 -11 11 -32 27 -50 28 -78 2 -46 -11 12 -26 22 -33 22 -8 0 -15
6 -15 13 0 26 -36 66 -71 78 l-36 12 28 23 c15 13 23 24 18 24 -5 0 -9 11 -9
25 0 16 11 33 34 51 25 19 31 29 23 39 -7 9 -6 16 5 25 19 16 19 25 -2 45 -16
16 -17 16 -29 0 -7 -9 -10 -24 -7 -33 4 -10 2 -13 -5 -8 -8 4 -16 -2 -21 -16
-6 -13 -10 -17 -10 -10 -1 9 -6 10 -20 2 -27 -14 -41 -13 -41 4 0 7 -7 19 -15
26 -8 7 -15 23 -15 35 0 12 -7 28 -15 35 -17 14 -20 75 -5 85 6 3 10 1 10 -4
0 -6 4 -11 9 -11 9 0 8 19 -5 103 -5 32 -3 47 5 47 6 0 11 -6 12 -12 5 -67 9
-90 17 -103 10 -20 3 -77 -9 -69 -5 3 -9 -2 -9 -11 0 -9 5 -13 10 -10 6 4 10
3 9 -2 -4 -26 4 -39 25 -41 13 -1 26 4 29 11 2 6 6 17 8 22 2 6 16 21 31 33
15 13 28 29 28 35 0 7 18 38 39 69 30 46 40 55 50 45 11 -10 12 -6 9 21 -3 22
0 36 8 39 7 2 12 17 12 32 -1 20 -6 27 -23 29 -13 1 -28 -5 -35 -13 -7 -8 -9
-15 -6 -15 4 0 -2 -13 -13 -29 -12 -16 -21 -34 -21 -39 0 -6 -4 -13 -8 -16 -4
-3 -7 8 -6 25 1 20 -5 35 -21 47 -17 14 -20 23 -14 40 5 13 4 22 -1 22 -6 0
-10 12 -10 27 0 14 3 24 6 20 9 -9 34 19 34 37 0 8 -4 18 -10 21 -15 9 -12 25
4 25 19 0 41 29 30 40 -5 5 -21 10 -35 12 -15 2 -34 10 -43 17 -9 7 -27 11
-40 9 -21 -4 -28 2 -50 41 -35 66 -79 105 -108 97 -38 -10 -49 -21 -58 -60 -7
-31 -4 -45 20 -89 15 -29 32 -52 38 -52 14 0 64 94 57 106 -13 21 11 6 28 -17
18 -24 18 -25 -12 -59 -34 -39 -32 -69 3 -63 18 4 21 0 19 -31 -1 -20 -13 -63
-27 -96 -35 -84 -42 -136 -23 -184 11 -25 12 -42 6 -48 -6 -6 -11 -24 -11 -42
-1 -20 -6 -31 -15 -31 -8 0 -12 4 -8 9 3 5 -2 17 -11 25 -10 10 -11 16 -3 16
9 0 9 3 -1 14 -6 8 -19 12 -27 9 -10 -4 -14 -2 -9 5 3 6 2 13 -4 17 -15 9 -12
42 5 49 23 9 19 39 -4 31 -14 -4 -20 0 -23 12 -4 19 17 69 33 78 12 8 12 55 0
55 -13 0 -41 -41 -35 -52 3 -4 -2 -5 -10 -2 -9 3 -16 16 -16 28 0 26 -18 46
-41 46 -19 0 -42 -24 -32 -34 8 -8 15 -39 17 -81 0 -16 6 -34 11 -38 6 -6 5
-10 -3 -14 -8 -3 -27 -18 -44 -35 -29 -28 -29 -30 -12 -43 18 -13 18 -14 2
-15 -10 0 -18 5 -18 10 0 6 -6 10 -13 10 -7 0 -13 9 -13 20 0 14 5 19 14 15
27 -10 42 13 30 48 -9 23 -8 32 0 35 18 6 14 42 -4 49 -10 4 -25 -4 -40 -22
-29 -33 -28 -29 -7 -51 13 -13 14 -19 5 -22 -6 -2 -12 -17 -12 -33 0 -34 -18
-38 -43 -8 l-18 20 -36 -21 c-28 -16 -42 -19 -63 -12 -18 7 -33 6 -51 -4 -13
-7 -27 -13 -31 -14 -15 0 -8 30 12 50 23 23 18 42 -8 33 -13 -4 -13 -2 3 10
20 16 20 16 -2 14 -13 -1 -23 -4 -23 -8 0 -4 -7 -9 -14 -12 -10 -4 -13 -1 -9
9 3 8 -2 23 -11 33 -9 10 -13 21 -9 25 5 4 1 6 -7 4 -12 -2 -14 5 -12 34 3 45
-10 55 -36 27 -15 -15 -22 -17 -27 -8 -6 8 -4 10 6 5 8 -4 6 -1 -3 7 -10 7
-22 25 -27 39 -7 20 -6 28 10 41 24 21 25 69 2 109 -16 28 -85 68 -117 68 -15
0 -20 56 -6 65 7 4 7 12 0 25 -5 10 -10 34 -10 53 0 26 -5 36 -20 40 -10 3
-24 -1 -31 -9z m1062 -611 c-5 -10 -16 -27 -25 -38 -15 -20 -15 -20 -16 2 0
22 24 53 41 53 6 0 6 -6 0 -17z m-151 -43 c0 -5 -5 -10 -11 -10 -5 0 -7 5 -4
10 3 6 8 10 11 10 2 0 4 -4 4 -10z m-1655 -170 c3 -5 2 -10 -4 -10 -5 0 -13 5
-16 10 -3 6 -2 10 4 10 5 0 13 -4 16 -10z m712 -45 c0 -8 -4 -12 -9 -9 -5 3
-6 10 -3 15 9 13 12 11 12 -6z m-74 -99 c7 3 3 -2 -7 -10 -22 -17 -36 -21 -36
-8 0 14 24 34 28 22 2 -5 9 -8 15 -4z m-78 -51 c-15 -15 -32 -24 -38 -22 -5 1
5 13 24 25 44 28 48 28 14 -3z m61 -7 c-16 -22 -16 -22 -16 -1 0 12 6 23 13
26 19 7 20 0 3 -25z m-616 -12 c0 -2 -8 -10 -17 -17 -16 -13 -17 -12 -4 4 13
16 21 21 21 13z m590 -26 c0 -20 -5 -30 -15 -30 -8 0 -15 5 -15 11 0 5 -4 7
-10 4 -5 -3 -10 0 -10 7 0 11 8 18 48 37 1 0 2 -12 2 -29z m-766 12 c3 -5 -1
-9 -9 -9 -8 0 -15 4 -15 9 0 4 4 8 9 8 6 0 12 -4 15 -8z m496 -7 c0 -8 -4 -15
-10 -15 -5 0 -7 7 -4 15 4 8 8 15 10 15 2 0 4 -7 4 -15z m-360 -21 c0 -8 -4
-12 -10 -9 -5 3 -10 10 -10 16 0 5 5 9 10 9 6 0 10 -7 10 -16z m1974 -2 c2 -4
-4 -9 -15 -9 -11 -1 -17 2 -14 8 7 11 22 12 29 1z m-1934 -17 c-7 -9 -15 -13
-19 -10 -3 3 1 10 9 15 21 14 24 12 10 -5z m2640 -20 c0 -1 -8 -9 -17 -16 -14
-12 -16 -12 -9 1 4 8 -2 3 -14 -12 -14 -18 -31 -28 -48 -28 l-27 0 30 18 c17
11 36 26 43 35 11 12 42 14 42 2z m-710 -11 c0 -8 -5 -12 -10 -9 -6 4 -8 11
-5 16 9 14 15 11 15 -7z m-90 -44 c0 -26 -12 -32 -25 -13 -10 14 -16 15 -28 5
-11 -10 -17 -9 -26 2 -15 17 -1 24 47 23 23 0 32 -5 32 -17z m60 -30 c0 -5 -4
-10 -10 -10 -5 0 -10 5 -10 10 0 6 5 10 10 10 6 0 10 -4 10 -10z m-165 -10 c3
-5 1 -10 -4 -10 -6 0 -11 5 -11 10 0 6 2 10 4 10 3 0 8 -4 11 -10z m115 -47
c0 -20 -16 -8 -23 17 -4 17 -3 19 9 9 8 -6 14 -18 14 -26z m624 28 c3 -4 -4
-17 -15 -27 -21 -19 -21 -18 -8 9 13 30 15 31 23 18z m-756 -13 c-7 -19 -35
-21 -35 -3 0 8 9 15 20 15 10 0 17 -5 15 -12z m-1025 -141 c-3 -5 4 -4 15 2
19 10 22 6 37 -42 9 -28 19 -59 21 -67 3 -8 2 -11 -2 -8 -12 12 -44 -12 -44
-32 0 -28 -41 -30 -97 -4 -33 15 -50 45 -37 65 4 7 3 9 -3 6 -8 -5 -33 60 -33
85 0 2 33 4 74 4 42 0 72 -4 69 -9z m594 -5 c28 -16 33 -15 33 2 0 19 69 14
81 -5 8 -13 39 -133 40 -154 1 -5 5 -17 9 -25 4 -8 11 -31 14 -52 3 -20 10
-47 16 -60 15 -35 70 -253 70 -278 0 -11 7 -34 15 -49 8 -16 17 -42 19 -57 3
-16 10 -43 15 -61 5 -17 7 -34 4 -36 -2 -3 0 -8 5 -11 6 -3 31 58 57 139 26
80 49 145 51 145 3 0 13 -20 24 -44 14 -35 26 -46 54 -56 20 -6 36 -17 36 -23
0 -6 -10 -41 -22 -77 -18 -59 -24 -67 -42 -62 -17 4 -19 2 -8 -9 23 -25 12
-29 -24 -9 -19 11 -33 16 -30 11 4 -5 -9 -14 -27 -20 -19 -6 -34 -18 -34 -26
0 -8 3 -15 7 -15 3 0 21 -13 39 -29 38 -34 52 -89 27 -114 -9 -8 -13 -22 -10
-30 3 -8 0 -18 -7 -23 -8 -4 -10 -3 -5 5 10 16 -12 41 -35 41 -12 0 -21 -10
-25 -25 -6 -23 -11 -25 -65 -25 -57 0 -58 0 -67 34 -6 18 -7 46 -4 61 3 18 1
26 -6 21 -10 -6 -19 15 -41 104 -14 53 -22 89 -24 110 -1 8 -8 25 -15 38 -8
13 -15 42 -16 66 -2 23 -10 55 -18 71 -16 31 -33 94 -30 108 1 4 -5 21 -13 37
-8 16 -12 36 -9 44 3 9 2 16 -4 16 -6 0 -13 18 -17 40 -9 52 -22 59 -31 15 -3
-19 -10 -35 -16 -35 -5 0 -8 -6 -7 -12 4 -26 -13 -67 -26 -62 -20 8 -30 -17
-13 -30 17 -12 20 -2 -87 -341 -31 -99 -63 -204 -72 -232 l-16 -53 -94 0 c-87
0 -94 1 -103 23 -28 67 -186 653 -179 661 5 6 2 17 -7 27 -8 9 -24 44 -34 78
-16 55 -17 62 -2 70 8 5 28 5 44 1 15 -5 28 -7 28 -4 0 2 13 -2 30 -11 25 -13
29 -20 24 -43 -4 -19 2 -38 20 -65 14 -21 26 -44 26 -52 0 -25 30 -17 31 8 1
25 22 -40 74 -222 31 -110 33 -126 20 -144 -16 -23 -3 -50 19 -41 9 3 16 -6
21 -23 6 -24 13 -8 47 102 22 72 47 155 55 185 9 30 22 62 29 70 7 9 12 24 12
35 -3 33 73 269 89 279 11 6 12 10 4 15 -8 5 -7 20 4 52 14 39 19 45 43 44 15
0 37 -6 49 -13z m737 0 c5 -9 -2 -47 -19 -101 -25 -78 -31 -89 -58 -99 -23 -9
-34 -9 -44 0 -10 8 -19 6 -36 -9 -12 -11 -28 -18 -34 -16 -18 6 -16 -5 2 -24
14 -14 14 -17 0 -32 -17 -20 -20 -51 -5 -51 6 0 10 -9 10 -20 0 -12 7 -34 15
-50 8 -16 11 -31 6 -34 -5 -4 -11 -2 -13 4 -1 5 -25 -6 -53 -25 -49 -33 -75
-43 -75 -27 0 4 25 84 55 177 30 94 55 185 55 203 0 18 4 31 9 28 5 -3 12 1
15 10 3 8 2 13 -3 9 -5 -3 0 12 11 32 21 38 21 38 87 38 45 0 69 -4 75 -13z
m-2064 -327 c0 -2 -6 -8 -13 -14 -10 -8 -14 -7 -14 2 0 8 6 14 14 14 7 0 13
-1 13 -2z m1917 -77 c-3 -8 -6 -5 -6 6 -1 11 2 17 5 13 3 -3 4 -12 1 -19z
m-1772 -18 c3 -5 -3 -10 -14 -10 -12 0 -21 5 -21 10 0 6 6 10 14 10 8 0 18 -4
21 -10z m-28 -47 c-3 -3 -11 -2 -17 2 -9 6 -9 10 1 16 14 8 27 -7 16 -18z
m1773 3 c0 -8 -7 -16 -15 -20 -12 -4 -13 -2 -2 14 14 24 17 25 17 6z m-40 -47
c0 -6 -4 -7 -10 -4 -5 3 -10 11 -10 16 0 6 5 7 10 4 6 -3 10 -11 10 -16z m40
-19 c-8 -5 -17 -7 -19 -4 -3 3 1 9 9 14 8 5 17 7 19 4 3 -3 -1 -9 -9 -14z
m586 -12 c8 -9 -34 -21 -46 -13 -6 4 -8 10 -6 14 6 9 42 8 52 -1z m-116 -178
c-20 -13 -33 -13 -25 0 3 6 14 10 23 10 15 0 15 -2 2 -10z m-2150 -230 c0 -4
-12 -5 -26 -2 -17 3 -22 7 -13 12 13 9 39 2 39 -10z m2025 -361 c-5 -13 -3
-19 3 -15 5 3 12 -4 16 -17 10 -38 7 -47 -18 -47 -13 0 -26 -6 -29 -12 -7 -22
-37 11 -33 36 3 11 5 27 5 34 1 6 6 12 12 12 6 0 17 7 25 15 21 21 27 19 19
-6z m-221 -60 c-3 -5 1 -6 9 -3 23 9 42 -23 28 -49 -11 -21 -11 -20 -6 7 5 26
5 27 -10 13 -22 -22 -40 -12 -41 22 -1 21 3 28 12 24 8 -3 11 -9 8 -14z m-58
-21 c3 -23 1 -23 -22 3 -19 21 -19 21 0 18 11 -2 20 -12 22 -21z m-1546 -54
c0 -8 -5 -12 -10 -9 -6 4 -8 11 -5 16 9 14 15 11 15 -7z m637 -56 c31 -4 73
-36 73 -58 0 -14 22 -12 44 5 27 20 76 19 92 -2 20 -27 17 -31 -24 -42 -48
-13 -72 -8 -129 24 -34 21 -55 26 -91 23 -41 -3 -47 0 -50 17 -1 11 5 30 15
42 14 17 19 19 28 8 5 -8 25 -15 42 -17z m647 -283 c-4 -8 -8 -15 -10 -15 -2
0 -4 7 -4 15 0 8 4 15 10 15 5 0 7 -7 4 -15z"/>
<path d="M2340 3490 c-6 -11 -8 -20 -6 -20 3 0 10 9 16 20 6 11 8 20 6 20 -3
0 -10 -9 -16 -20z"/>
<path d="M3090 3444 c0 -8 5 -12 10 -9 6 3 10 10 10 16 0 5 -4 9 -10 9 -5 0
-10 -7 -10 -16z"/>
<path d="M2930 3386 c0 -9 5 -16 10 -16 6 0 10 4 10 9 0 6 -4 13 -10 16 -5 3
-10 -1 -10 -9z"/>
<path d="M2984 3383 c-13 -13 -13 -17 3 -28 20 -15 43 -9 43 10 0 7 6 15 13
18 6 2 -1 6 -16 9 -18 3 -34 0 -43 -9z"/>
<path d="M3064 3370 c-25 -10 -31 -23 -30 -65 1 -22 6 -30 18 -29 19 2 34 -29
23 -46 -9 -15 13 -40 35 -40 16 0 30 18 30 40 0 5 -13 17 -29 26 -17 10 -27
22 -24 26 2 5 12 1 20 -9 14 -17 14 -17 9 1 -5 14 -2 17 9 12 11 -4 14 -2 8 7
-4 6 -6 19 -5 27 4 26 -39 59 -64 50z"/>
<path d="M2955 3330 c-3 -5 -1 -10 4 -10 6 0 11 5 11 10 0 6 -2 10 -4 10 -3 0
-8 -4 -11 -10z"/>
<path d="M2362 3268 c-28 -28 2 -67 34 -43 15 11 17 18 8 31 -14 23 -27 27
-42 12z"/>
<path d="M2910 3206 c0 -2 9 -6 20 -9 11 -3 20 -1 20 4 0 5 -9 9 -20 9 -11 0
-20 -2 -20 -4z"/>
<path d="M2560 2980 c0 -19 3 -21 12 -12 9 9 9 15 0 24 -9 9 -12 7 -12 -12z"/>
<path d="M3122 2988 c6 -18 28 -21 28 -4 0 9 -7 16 -16 16 -9 0 -14 -5 -12
-12z"/>
<path d="M3200 2971 c0 -6 5 -13 10 -16 6 -3 10 1 10 9 0 9 -4 16 -10 16 -5 0
-10 -4 -10 -9z"/>
<path d="M3410 2940 c0 -5 5 -10 10 -10 6 0 10 5 10 10 0 6 -4 10 -10 10 -5 0
-10 -4 -10 -10z"/>
<path d="M2566 2913 c-3 -3 -6 -15 -6 -25 0 -14 6 -19 22 -16 12 2 23 8 25 15
5 13 -31 36 -41 26z"/>
<path d="M3173 2913 c-33 -6 -28 -23 7 -23 20 0 30 5 30 15 0 8 -3 14 -7 14
-5 -1 -18 -4 -30 -6z"/>
<path d="M3500 2876 c0 -2 7 -7 16 -10 8 -3 12 -2 9 4 -6 10 -25 14 -25 6z"/>
<path d="M3173 2863 c-32 -6 -29 -16 12 -35 39 -17 40 -16 24 14 -10 18 -9 20
5 15 9 -4 16 -2 16 3 0 10 -16 11 -57 3z"/>
<path d="M3410 2846 c-12 -12 -13 -39 -2 -32 5 3 16 -4 25 -15 9 -10 22 -19
29 -19 34 1 55 42 31 62 -19 15 -70 17 -83 4z"/>
<path d="M3266 2765 c4 -8 10 -12 15 -9 14 8 10 24 -6 24 -9 0 -12 -6 -9 -15z"/>
<path d="M3275 2680 c-4 -6 -13 -9 -20 -6 -19 7 -38 -37 -30 -73 4 -17 11 -31
16 -31 6 0 7 -9 4 -20 -4 -11 -2 -20 4 -20 6 0 11 7 11 15 0 8 7 15 15 15 8 0
23 10 34 21 15 17 18 27 10 46 -15 41 -36 66 -44 53z"/>
<path d="M3620 3424 c0 -8 5 -12 10 -9 6 4 8 11 5 16 -9 14 -15 11 -15 -7z"/>
<path d="M2712 4907 c-28 -34 -102 -191 -94 -199 12 -12 42 18 42 42 0 10 4
22 10 25 5 3 7 0 4 -8 -7 -19 3 -25 53 -33 34 -5 40 -3 40 12 0 22 -16 46 -27
39 -4 -2 -15 2 -25 9 -18 13 -18 15 3 64 12 28 22 53 22 56 0 11 -17 6 -28 -7z"/>
<path d="M4761 4894 c0 -11 3 -14 6 -6 3 7 2 16 -1 19 -3 4 -6 -2 -5 -13z"/>
<path d="M970 4862 c0 -10 14 -31 31 -48 l32 -29 -7 28 c-7 28 -35 67 -48 67
-5 0 -8 -8 -8 -18z"/>
<path d="M3020 4865 c-12 -15 -5 -39 10 -30 5 3 17 -6 28 -20 22 -28 37 -32
45 -12 3 8 -7 25 -21 39 -39 36 -48 39 -62 23z"/>
<path d="M5122 4858 c-17 -17 5 -43 24 -27 8 6 14 18 14 25 0 17 -22 18 -38 2z"/>
<path d="M3181 4838 c19 -36 49 -51 49 -24 0 19 -27 46 -46 46 -12 0 -13 -4
-3 -22z"/>
<path d="M2100 4785 c0 -9 6 -12 15 -9 8 4 12 10 9 15 -8 14 -24 10 -24 -6z"/>
<path d="M4034 4776 c-19 -14 -44 -81 -44 -119 0 -28 32 -29 61 -1 34 32 48
70 39 104 -7 30 -28 36 -56 16z"/>
<path d="M4731 4762 c-13 -25 4 -51 29 -45 11 3 20 0 20 -6 0 -18 38 -13 49 6
12 23 -4 54 -24 47 -8 -4 -15 -1 -15 5 0 18 -48 13 -59 -7z"/>
<path d="M1243 4754 c-8 -20 13 -42 27 -28 12 12 3 44 -11 44 -5 0 -12 -7 -16
-16z"/>
<path d="M4311 4730 c-27 -46 -19 -94 36 -202 25 -50 36 -81 30 -87 -5 -5 -7
-17 -3 -26 4 -12 10 -14 25 -6 16 9 19 22 19 78 0 38 -5 79 -10 93 -5 14 -12
48 -15 75 -6 59 -28 105 -48 105 -9 0 -24 -14 -34 -30z"/>
<path d="M3066 4733 c-4 -9 -1 -23 7 -30 12 -12 16 -12 27 1 10 13 10 19 0 31
-16 19 -26 19 -34 -2z"/>
<path d="M1630 4708 c0 -29 8 -32 48 -22 13 4 22 14 22 26 0 10 -4 17 -9 13
-5 -3 -12 -1 -16 4 -3 5 -14 9 -25 8 -15 -1 -20 -9 -20 -29z"/>
<path d="M1890 4720 c0 -5 5 -10 11 -10 5 0 7 5 4 10 -3 6 -8 10 -11 10 -2 0
-4 -4 -4 -10z"/>
<path d="M979 4699 c-13 -7 -16 -22 -14 -75 3 -78 16 -95 73 -100 36 -2 41 1
61 36 22 40 23 55 6 77 -30 37 -38 43 -57 43 -12 0 -29 6 -37 14 -11 10 -21
12 -32 5z"/>
<path d="M1937 4703 c-12 -11 -8 -23 8 -23 8 0 15 7 15 15 0 16 -12 20 -23 8z"/>
<path d="M3810 4690 c0 -5 5 -10 10 -10 6 0 10 5 10 10 0 6 -4 10 -10 10 -5 0
-10 -4 -10 -10z"/>
<path d="M830 4682 c0 -5 7 -13 16 -16 10 -4 14 -1 12 6 -5 15 -28 23 -28 10z"/>
<path d="M1403 4668 c-4 -7 -8 -19 -8 -27 0 -8 -6 -16 -13 -19 -7 -2 -11 2
-10 8 2 7 -3 15 -9 17 -7 3 -13 0 -13 -6 0 -23 -2 -26 -23 -37 -16 -9 -30 -8
-66 8 -24 10 -54 17 -65 15 -18 -3 -17 -5 9 -16 66 -29 74 -34 69 -43 -3 -5
-13 -7 -21 -4 -9 4 -27 -6 -44 -22 -28 -28 -29 -30 -15 -58 8 -16 18 -37 21
-48 4 -15 8 -16 20 -6 8 7 15 21 15 32 0 10 5 16 10 13 16 -10 12 -23 -21 -56
-24 -25 -28 -34 -17 -40 18 -12 32 -11 48 4 9 8 8 3 -3 -15 -16 -25 -15 -27 9
-43 51 -33 88 1 61 56 -15 32 -14 55 3 44 16 -10 80 25 80 45 0 10 5 22 10 25
6 3 10 15 10 26 0 20 15 26 25 9 3 -5 13 -6 21 -3 12 4 13 8 3 13 -6 5 -10 19
-7 34 3 15 1 26 -6 26 -6 0 -4 5 4 10 12 8 10 10 -10 11 -14 1 -29 1 -33 0 -4
-1 -3 8 3 18 8 16 6 22 -9 31 -15 7 -22 7 -28 -2z"/>
<path d="M2746 4664 c-9 -8 -16 -19 -16 -23 0 -11 34 -41 46 -41 18 0 32 21
27 41 -8 30 -38 42 -57 23z"/>
<path d="M3855 4673 c-11 -3 -23 -11 -28 -19 -6 -11 -89 -31 -109 -26 -4 1 -5
-5 -1 -14 3 -9 1 -19 -5 -23 -13 -8 -22 -54 -14 -68 13 -21 92 -15 92 6 0 5
10 19 23 33 13 14 29 39 36 55 7 18 19 30 29 29 9 0 17 5 17 13 0 17 -12 21
-40 14z"/>
<path d="M787 4664 c-9 -9 4 -34 18 -34 14 0 27 25 18 34 -4 3 -12 6 -18 6 -6
0 -14 -3 -18 -6z"/>
<path d="M1640 4661 c0 -6 5 -13 10 -16 6 -3 10 1 10 9 0 9 -4 16 -10 16 -5 0
-10 -4 -10 -9z"/>
<path d="M1817 4663 c-4 -3 -7 -13 -7 -22 1 -13 3 -13 11 2 11 19 8 33 -4 20z"/>
<path d="M3010 4662 c0 -15 25 -62 33 -62 4 0 2 10 -5 23 -7 12 -11 28 -10 35
2 6 -2 12 -8 12 -5 0 -10 -4 -10 -8z"/>
<path d="M3231 4621 c-46 -53 -51 -62 -16 -29 21 21 37 39 35 42 -3 2 -11 -3
-19 -13z"/>
<path d="M1503 4590 c1 -11 7 -20 14 -20 7 0 13 9 13 20 0 11 -6 20 -14 20 -9
0 -14 -9 -13 -20z"/>
<path d="M4507 4596 c-7 -17 18 -40 33 -31 5 3 10 15 10 26 0 23 -35 27 -43 5z"/>
<path d="M1560 4593 c0 -4 15 -20 33 -35 23 -20 27 -28 15 -28 -23 0 -29 -13
-34 -74 -5 -48 -3 -53 20 -64 20 -9 28 -8 45 7 11 10 19 20 17 22 -3 2 -7 22
-9 44 -7 52 -20 86 -43 106 -27 23 -44 31 -44 22z"/>
<path d="M5347 4545 c-21 -25 -36 -45 -35 -45 2 0 24 20 48 45 24 25 40 45 34
45 -5 0 -27 -20 -47 -45z"/>
<path d="M3215 4569 c-10 -15 3 -25 16 -12 7 7 7 13 1 17 -6 3 -14 1 -17 -5z"/>
<path d="M3256 4548 c-18 -25 -6 -57 22 -57 9 1 27 -2 39 -6 28 -9 51 28 32
51 -6 8 -14 12 -17 10 -2 -3 -14 1 -26 9 -27 20 -32 19 -50 -7z"/>
<path d="M4140 4560 c0 -5 5 -10 10 -10 6 0 10 5 10 10 0 6 -4 10 -10 10 -5 0
-10 -4 -10 -10z"/>
<path d="M1100 4545 c-10 -12 -10 -15 4 -15 9 0 16 7 16 15 0 8 -2 15 -4 15
-2 0 -9 -7 -16 -15z"/>
<path d="M1940 4490 c0 -5 5 -10 10 -10 6 0 10 5 10 10 0 6 -4 10 -10 10 -5 0
-10 -4 -10 -10z"/>
<path d="M2897 4493 c-11 -10 -8 -20 8 -27 10 -4 15 1 15 14 0 20 -11 26 -23
13z"/>
<path d="M410 4480 c0 -6 7 -10 15 -10 8 0 15 2 15 4 0 2 -7 6 -15 10 -8 3
-15 1 -15 -4z"/>
<path d="M1995 4480 c-8 -13 3 -30 20 -30 14 0 27 24 18 34 -10 9 -31 7 -38
-4z"/>
<path d="M1150 4472 c0 -5 7 -16 16 -23 14 -12 16 -11 13 5 -4 20 -29 35 -29
18z"/>
<path d="M4114 4469 c-3 -6 0 -17 8 -25 13 -13 16 -13 27 0 7 8 10 20 6 26 -8
13 -32 13 -41 -1z"/>
<path d="M1706 4445 c-3 -8 -1 -15 4 -15 6 0 10 -7 10 -15 0 -8 4 -15 8 -15 5
0 7 14 4 30 -5 32 -16 39 -26 15z"/>
<path d="M2851 4455 c0 -14 28 -50 34 -43 3 3 -3 16 -14 29 -11 13 -20 20 -20
14z"/>
<path d="M3870 4426 c0 -9 7 -16 16 -16 9 0 14 5 12 12 -6 18 -28 21 -28 4z"/>
<path d="M4441 4424 c0 -11 3 -14 6 -6 3 7 2 16 -1 19 -3 4 -6 -2 -5 -13z"/>
<path d="M2030 4395 c-26 -27 -26 -31 -8 -52 34 -42 78 16 45 61 -12 16 -14
15 -37 -9z"/>
<path d="M947 4399 c7 -7 15 -10 18 -7 3 3 -2 9 -12 12 -14 6 -15 5 -6 -5z"/>
<path d="M1390 4395 c0 -8 5 -15 10 -15 6 0 10 7 10 15 0 8 -4 15 -10 15 -5 0
-10 -7 -10 -15z"/>
<path d="M2956 4401 c-4 -5 3 -15 15 -21 18 -10 20 -9 17 6 -4 20 -23 30 -32
15z"/>
<path d="M1653 4390 c-46 -19 -60 -87 -27 -137 10 -16 12 -29 5 -41 -12 -23 2
-47 23 -39 16 6 19 24 16 82 0 17 8 50 19 74 28 63 17 82 -36 61z"/>
<path d="M4802 4388 c-17 -17 5 -43 24 -27 8 6 14 18 14 25 0 17 -22 18 -38 2z"/>
<path d="M1778 4378 c-7 -19 2 -38 17 -38 18 0 28 32 13 42 -18 11 -25 10 -30
-4z"/>
<path d="M1147 4373 c-13 -12 -7 -41 8 -47 18 -6 30 16 21 39 -6 16 -18 19
-29 8z"/>
<path d="M1365 4370 c-3 -5 -1 -10 4 -10 6 0 11 5 11 10 0 6 -2 10 -4 10 -3 0
-8 -4 -11 -10z"/>
<path d="M1740 4370 c0 -5 5 -10 10 -10 6 0 10 5 10 10 0 6 -4 10 -10 10 -5 0
-10 -4 -10 -10z"/>
<path d="M1894 4371 c-28 -20 0 -69 31 -57 9 3 14 2 11 -3 -3 -5 0 -14 8 -20
10 -8 16 -8 25 3 10 12 8 18 -8 33 -12 9 -21 23 -21 29 0 13 -34 25 -46 15z"/>
<path d="M1215 4360 c-3 -5 -1 -10 4 -10 6 0 11 5 11 10 0 6 -2 10 -4 10 -3 0
-8 -4 -11 -10z"/>
<path d="M610 4340 c0 -5 5 -10 10 -10 6 0 10 5 10 10 0 6 -4 10 -10 10 -5 0
-10 -4 -10 -10z"/>
<path d="M4282 4323 c-21 -26 -29 -63 -16 -75 20 -21 105 67 89 92 -12 19 -52
10 -73 -17z"/>
<path d="M890 4315 c0 -8 5 -15 10 -15 6 0 10 7 10 15 0 8 -4 15 -10 15 -5 0
-10 -7 -10 -15z"/>
<path d="M3741 4307 c-9 -12 -8 -16 3 -20 19 -7 32 11 19 24 -6 6 -14 5 -22
-4z"/>
<path d="M4181 4306 c-15 -18 -3 -46 19 -46 22 0 30 19 18 43 -11 21 -22 22
-37 3z"/>
<path d="M1366 4297 c3 -10 9 -15 12 -12 3 3 0 11 -7 18 -10 9 -11 8 -5 -6z"/>
<path d="M3684 4296 c-7 -18 1 -46 13 -46 4 0 15 5 23 10 11 7 12 14 4 27 -15
24 -33 28 -40 9z"/>
<path d="M4410 4291 c-7 -15 -6 -23 6 -35 9 -9 20 -14 24 -11 5 3 19 0 30 -7
18 -11 23 -10 35 6 17 23 3 58 -20 50 -8 -4 -15 -1 -15 5 0 19 -49 12 -60 -8z"/>
<path d="M2882 4291 c2 -7 7 -12 11 -12 12 1 9 15 -3 20 -7 2 -11 -2 -8 -8z"/>
<path d="M3640 4285 c0 -8 5 -15 10 -15 6 0 10 7 10 15 0 8 -4 15 -10 15 -5 0
-10 -7 -10 -15z"/>
<path d="M636 4274 c-19 -19 -20 -25 -3 -46 21 -27 51 -30 65 -7 11 17 11 25
-3 45 -18 28 -37 31 -59 8z"/>
<path d="M1887 4284 c-9 -10 2 -24 19 -24 8 0 14 7 14 15 0 15 -21 21 -33 9z"/>
<path d="M3927 4270 c-7 -28 20 -55 39 -39 8 6 14 22 14 35 0 19 -5 24 -24 24
-15 0 -26 -7 -29 -20z"/>
<path d="M1240 4271 c0 -5 5 -13 10 -16 6 -3 10 -2 10 4 0 5 -4 13 -10 16 -5
3 -10 2 -10 -4z"/>
<path d="M1403 4270 c-27 -11 -30 -35 -7 -44 9 -4 14 -13 10 -21 -3 -9 6 -25
22 -40 15 -14 21 -25 14 -25 -9 0 -10 -5 -4 -16 5 -9 7 -25 5 -35 -3 -11 0
-19 6 -19 6 0 11 -8 11 -18 0 -11 8 -26 18 -35 16 -14 18 -13 35 8 11 16 13
26 7 30 -8 5 -7 12 1 22 14 16 17 62 5 81 -4 7 -10 25 -12 39 -7 35 -20 43
-64 38 -19 -2 -29 -1 -22 2 13 5 17 43 5 42 -5 0 -18 -4 -30 -9z"/>
<path d="M1010 4247 c0 -23 13 -27 35 -11 10 8 14 14 8 14 -6 0 -18 3 -27 6
-10 4 -16 1 -16 -9z"/>
<path d="M1770 4251 c0 -5 5 -13 10 -16 6 -3 10 -2 10 4 0 5 -4 13 -10 16 -5
3 -10 2 -10 -4z"/>
<path d="M4586 4223 c-4 -9 -2 -21 3 -26 14 -14 42 10 34 29 -7 19 -29 18 -37
-3z"/>
<path d="M1350 4220 c0 -5 5 -10 10 -10 6 0 10 5 10 10 0 6 -4 10 -10 10 -5 0
-10 -4 -10 -10z"/>
<path d="M516 4205 c4 -8 10 -12 15 -9 11 6 2 24 -11 24 -5 0 -7 -7 -4 -15z"/>
<path d="M1076 4211 c-4 -5 -2 -12 3 -15 5 -4 12 -2 15 3 4 5 2 12 -3 15 -5 4
-12 2 -15 -3z"/>
<path d="M1135 4200 c-12 -14 -12 -17 4 -27 21 -13 36 -6 43 22 6 26 -26 29
-47 5z"/>
<path d="M1226 4193 c-5 -13 -9 -14 -15 -5 -10 17 -28 -23 -27 -63 1 -22 6
-30 19 -29 16 2 19 -4 21 -50 1 -27 31 -44 54 -30 20 13 61 -2 61 -21 0 -5 7
-11 15 -13 9 -2 16 3 16 12 0 9 -4 16 -10 16 -5 0 -10 9 -10 19 0 11 -3 21 -7
24 -5 2 -3 2 4 1 17 -4 36 23 29 41 -8 23 -46 19 -46 -5 0 -16 -6 -19 -37 -18
-46 2 -74 23 -43 33 11 3 25 3 32 -1 9 -6 9 -3 -1 9 -8 11 -9 17 -3 17 14 0 3
32 -15 43 -7 4 -13 15 -13 22 0 21 -16 19 -24 -2z"/>
<path d="M2020 4202 c0 -6 -8 -9 -17 -8 -10 2 -26 -8 -37 -21 -18 -24 -18 -25
0 -58 33 -62 102 -31 89 39 -7 33 -35 72 -35 48z"/>
<path d="M3546 4202 c-3 -5 -10 -21 -15 -35 -8 -21 -7 -25 4 -21 7 3 11 12 9
19 -3 8 2 12 13 12 10 -1 18 4 18 12 0 17 -21 26 -29 13z"/>
<path d="M1701 4182 c-15 -28 10 -62 32 -44 17 14 29 52 17 52 -5 0 -15 3 -23
6 -9 3 -20 -2 -26 -14z"/>
<path d="M3360 4185 c0 -8 5 -15 10 -15 6 0 10 7 10 15 0 8 -4 15 -10 15 -5 0
-10 -7 -10 -15z"/>
<path d="M630 4179 c0 -5 5 -7 10 -4 6 3 10 8 10 11 0 2 -4 4 -10 4 -5 0 -10
-5 -10 -11z"/>
<path d="M1370 4180 c0 -5 5 -10 10 -10 6 0 10 5 10 10 0 6 -4 10 -10 10 -5 0
-10 -4 -10 -10z"/>
<path d="M4722 4155 c-12 -26 -6 -103 9 -119 11 -12 11 -12 38 52 17 40 19 57
11 72 -15 28 -44 25 -58 -5z"/>
<path d="M2130 4141 c0 -17 5 -33 10 -36 6 -4 10 8 10 29 0 20 -4 36 -10 36
-5 0 -10 -13 -10 -29z"/>
<path d="M874 4145 c11 -8 25 -15 31 -15 6 0 35 -11 64 -26 65 -31 91 -26 36
7 -47 28 -102 49 -130 49 -20 -1 -20 -1 -1 -15z"/>
<path d="M1100 4149 c0 -5 5 -7 10 -4 6 3 10 8 10 11 0 2 -4 4 -10 4 -5 0 -10
-5 -10 -11z"/>
<path d="M3675 4140 c3 -5 10 -10 16 -10 5 0 9 5 9 10 0 6 -7 10 -16 10 -8 0
-12 -4 -9 -10z"/>
<path d="M1575 4121 c-3 -12 -11 -21 -16 -21 -5 0 -9 -6 -9 -14 0 -14 37 -29
52 -20 13 8 9 51 -6 63 -11 10 -16 8 -21 -8z"/>
<path d="M1655 4130 c-3 -5 -1 -10 4 -10 6 0 11 5 11 10 0 6 -2 10 -4 10 -3 0
-8 -4 -11 -10z"/>
<path d="M4189 4133 c0 -4 -2 -24 -4 -43 -5 -51 7 -67 38 -53 25 12 27 22 13
54 -4 9 -6 22 -4 30 2 8 -7 15 -19 17 -13 2 -23 0 -24 -5z"/>
<path d="M2086 4115 c-4 -12 -1 -16 11 -13 18 3 21 20 5 26 -5 1 -12 -4 -16
-13z"/>
<path d="M5510 4119 c0 -5 5 -7 10 -4 6 3 10 8 10 11 0 2 -4 4 -10 4 -5 0 -10
-5 -10 -11z"/>
<path d="M5027 4075 c-21 -25 -36 -45 -35 -45 2 0 24 20 48 45 24 25 40 45 34
45 -5 0 -27 -20 -47 -45z"/>
<path d="M697 4093 c-11 -11 -8 -48 5 -61 18 -18 42 -15 62 7 24 27 6 61 -33
61 -15 0 -31 -3 -34 -7z"/>
<path d="M1255 4090 c3 -5 8 -10 11 -10 2 0 4 5 4 10 0 6 -5 10 -11 10 -5 0
-7 -4 -4 -10z"/>
<path d="M2116 4085 c-3 -8 -1 -15 4 -15 13 0 22 18 11 24 -5 3 -11 -1 -15 -9z"/>
<path d="M5106 4060 c-22 -17 -35 -30 -30 -30 10 0 83 59 74 59 -3 0 -23 -13
-44 -29z"/>
<path d="M2166 4071 c-4 -7 -5 -15 -2 -18 9 -9 19 4 14 18 -4 11 -6 11 -12 0z"/>
<path d="M3975 4070 c3 -5 10 -10 16 -10 5 0 9 5 9 10 0 6 -7 10 -16 10 -8 0
-12 -4 -9 -10z"/>
<path d="M1390 4050 c-11 -7 -11 -11 -1 -24 11 -12 17 -14 27 -5 8 6 14 15 14
19 0 13 -26 19 -40 10z"/>
<path d="M1545 4050 c3 -5 10 -10 16 -10 5 0 9 5 9 10 0 6 -7 10 -16 10 -8 0
-12 -4 -9 -10z"/>
<path d="M2047 4054 c-8 -8 1 -24 14 -24 5 0 9 7 9 15 0 15 -12 20 -23 9z"/>
<path d="M4866 4043 c-9 -22 3 -36 20 -22 18 15 18 25 0 32 -8 3 -17 -1 -20
-10z"/>
<path d="M850 4024 c0 -8 5 -12 10 -9 6 4 8 11 5 16 -9 14 -15 11 -15 -7z"/>
<path d="M4599 4013 c-13 -17 -13 -17 6 -3 11 8 22 16 24 17 2 2 0 3 -6 3 -6
0 -17 -8 -24 -17z"/>
<path d="M4141 3984 c0 -11 3 -14 6 -6 3 7 2 16 -1 19 -3 4 -6 -2 -5 -13z"/>
<path d="M4537 3970 c-24 -19 -25 -23 -12 -37 13 -12 13 -18 3 -31 -11 -13
-10 -14 9 -4 12 7 32 12 44 12 23 0 48 25 49 49 0 9 -8 12 -25 9 -16 -3 -29 0
-33 9 -7 11 -13 10 -35 -7z"/>
<path d="M4839 3974 c-13 -7 -31 -13 -40 -14 -23 0 -53 -36 -46 -55 9 -21 22
-19 89 12 46 21 58 31 56 47 -4 24 -27 28 -59 10z"/>
<path d="M893 3970 c-13 -5 -23 -13 -24 -17 0 -4 -2 -16 -4 -26 -5 -25 30 -58
52 -50 31 11 43 25 43 48 0 53 -18 65 -67 45z"/>
<path d="M2012 3961 c-15 -9 -5 -41 13 -41 18 0 26 27 12 39 -7 5 -18 6 -25 2z"/>
<path d="M1065 3950 c-4 -6 -1 -17 5 -26 15 -18 42 0 33 22 -6 16 -29 19 -38
4z"/>
<path d="M1575 3951 c-6 -11 9 -23 19 -14 9 9 7 23 -3 23 -6 0 -12 -4 -16 -9z"/>
<path d="M1180 3925 c0 -9 5 -15 11 -13 6 2 11 8 11 13 0 5 -5 11 -11 13 -6 2
-11 -4 -11 -13z"/>
<path d="M1310 3914 c0 -12 6 -15 23 -10 12 3 26 6 30 6 5 0 5 5 2 10 -10 17
-55 12 -55 -6z"/>
<path d="M4463 3904 l-28 -25 33 22 c17 13 32 24 32 26 0 8 -11 1 -37 -23z"/>
<path d="M4165 3900 c-17 -19 -17 -22 -3 -36 14 -14 17 -14 32 1 12 12 13 21
6 36 -13 23 -13 24 -35 -1z"/>
<path d="M3530 3896 c0 -8 5 -18 10 -21 6 -3 10 3 10 14 0 12 -4 21 -10 21 -5
0 -10 -6 -10 -14z"/>
<path d="M1170 3896 c0 -2 7 -9 15 -16 9 -7 15 -8 15 -2 0 5 -7 12 -15 16 -8
3 -15 4 -15 2z"/>
<path d="M1395 3879 c-10 -15 3 -25 16 -12 7 7 7 13 1 17 -6 3 -14 1 -17 -5z"/>
<path d="M570 3845 c0 -8 5 -15 10 -15 6 0 10 7 10 15 0 8 -4 15 -10 15 -5 0
-10 -7 -10 -15z"/>
<path d="M3990 3840 c0 -5 5 -10 11 -10 5 0 7 5 4 10 -3 6 -8 10 -11 10 -2 0
-4 -4 -4 -10z"/>
<path d="M4775 3830 c-10 -11 -24 -20 -32 -20 -7 0 -13 -3 -13 -7 0 -7 -11
-20 -89 -97 -24 -24 -28 -34 -20 -48 12 -22 36 -12 86 36 18 17 49 45 69 61
60 51 65 57 62 74 -5 24 -41 25 -63 1z"/>
<path d="M4926 3831 c-4 -7 -5 -15 -2 -18 9 -9 19 4 14 18 -4 11 -6 11 -12 0z"/>
<path d="M1172 3813 c-10 -17 8 -58 33 -75 42 -31 66 25 28 66 -28 30 -48 33
-61 9z"/>
<path d="M1270 3805 c0 -8 7 -15 15 -15 8 0 15 7 15 15 0 8 -7 15 -15 15 -8 0
-15 -7 -15 -15z"/>
<path d="M1420 3810 c0 -5 5 -10 10 -10 6 0 10 5 10 10 0 6 -4 10 -10 10 -5 0
-10 -4 -10 -10z"/>
<path d="M705 3800 c-3 -5 3 -10 15 -10 12 0 18 5 15 10 -3 6 -10 10 -15 10
-5 0 -12 -4 -15 -10z"/>
<path d="M5066 3782 l-19 -27 26 24 c28 26 32 31 20 31 -5 0 -17 -13 -27 -28z"/>
<path d="M1350 3784 c0 -8 5 -12 10 -9 6 3 10 10 10 16 0 5 -4 9 -10 9 -5 0
-10 -7 -10 -16z"/>
<path d="M1415 3779 c-10 -15 3 -25 16 -12 7 7 7 13 1 17 -6 3 -14 1 -17 -5z"/>
<path d="M1471 3771 c-8 -5 -9 -11 -3 -15 5 -3 12 1 16 9 6 17 6 18 -13 6z"/>
<path d="M1135 3760 c3 -5 8 -10 11 -10 2 0 4 5 4 10 0 6 -5 10 -11 10 -5 0
-7 -4 -4 -10z"/>
<path d="M963 3752 c-5 -4 -15 -17 -22 -29 -23 -44 47 -83 83 -47 28 27 17 56
-25 72 -14 6 -30 7 -36 4z"/>
<path d="M1423 3753 c-7 -3 -13 -11 -13 -18 0 -16 23 -26 38 -16 16 10 -8 41
-25 34z"/>
<path d="M921 3734 c0 -11 3 -14 6 -6 3 7 2 16 -1 19 -3 4 -6 -2 -5 -13z"/>
<path d="M1323 3732 c-34 -5 -28 -22 7 -22 17 0 30 4 30 9 0 14 -11 18 -37 13z"/>
<path d="M4515 3730 c4 -6 11 -8 16 -5 14 9 11 15 -7 15 -8 0 -12 -5 -9 -10z"/>
<path d="M4350 3719 c0 -5 5 -7 10 -4 6 3 10 8 10 11 0 2 -4 4 -10 4 -5 0 -10
-5 -10 -11z"/>
<path d="M1200 3704 c0 -9 5 -14 12 -12 18 6 21 28 4 28 -9 0 -16 -7 -16 -16z"/>
<path d="M1350 3692 c0 -6 9 -12 20 -15 11 -3 20 -3 20 -1 0 2 -9 8 -20 14
-11 6 -20 7 -20 2z"/>
<path d="M1180 3675 c0 -16 16 -20 24 -6 3 5 -1 11 -9 15 -9 3 -15 0 -15 -9z"/>
<path d="M1317 3679 c-21 -12 -13 -29 13 -29 10 0 20 -5 22 -12 3 -8 6 -9 11
-1 4 6 -1 20 -11 32 -13 16 -21 18 -35 10z"/>
<path d="M1475 3680 c3 -5 8 -10 11 -10 2 0 4 5 4 10 0 6 -5 10 -11 10 -5 0
-7 -4 -4 -10z"/>
<path d="M5190 3649 c0 -5 5 -7 10 -4 6 3 10 8 10 11 0 2 -4 4 -10 4 -5 0 -10
-5 -10 -11z"/>
<path d="M1260 3640 c0 -5 7 -10 15 -10 8 0 15 5 15 10 0 6 -7 10 -15 10 -8 0
-15 -4 -15 -10z"/>
<path d="M1264 3609 c-8 -14 11 -33 25 -25 11 7 4 36 -9 36 -5 0 -12 -5 -16
-11z"/>
<path d="M4804 3606 c-7 -7 -25 -23 -40 -35 l-29 -22 33 18 c34 18 58 41 51
47 -2 2 -9 -2 -15 -8z"/>
<path d="M4545 3600 c-3 -5 -2 -10 4 -10 5 0 13 5 16 10 3 6 2 10 -4 10 -5 0
-13 -4 -16 -10z"/>
<path d="M1398 3588 c-30 -10 -35 -27 -16 -46 13 -13 52 3 43 18 -3 5 -1 11 5
15 12 7 14 25 3 24 -5 0 -20 -5 -35 -11z"/>
<path d="M1645 3591 c-6 -11 9 -23 19 -14 9 9 7 23 -3 23 -6 0 -12 -4 -16 -9z"/>
<path d="M312 3578 c2 -6 19 -14 37 -16 23 -2 31 0 26 8 -4 6 -9 9 -12 6 -3
-2 -16 0 -30 5 -18 7 -24 6 -21 -3z"/>
<path d="M4480 3570 c-8 -5 -10 -10 -5 -10 6 0 17 5 25 10 8 5 11 10 5 10 -5
0 -17 -5 -25 -10z"/>
<path d="M1470 3550 c0 -5 5 -10 11 -10 5 0 7 5 4 10 -3 6 -8 10 -11 10 -2 0
-4 -4 -4 -10z"/>
<path d="M4440 3550 c-9 -6 -10 -10 -3 -10 6 0 15 5 18 10 8 12 4 12 -15 0z"/>
<path d="M4485 3541 c-3 -6 -3 -28 0 -49 5 -36 3 -39 -30 -55 -44 -21 -61 -21
-69 -2 -9 24 -39 17 -70 -16 -28 -30 -29 -32 -13 -58 9 -16 14 -31 11 -34 -8
-7 20 -37 34 -37 11 0 25 27 26 52 1 9 4 20 9 24 4 4 7 17 7 28 1 21 1 21 13
-1 12 -21 14 -23 40 -23 8 0 9 -3 1 -8 -6 -4 -19 -22 -28 -39 -9 -18 -23 -33
-31 -33 -8 0 -15 -4 -15 -10 0 -13 13 -13 27 1 8 8 17 6 34 -10 30 -28 85 -29
94 -1 3 11 10 20 13 20 4 0 9 11 10 24 2 28 -49 72 -70 61 -7 -4 -2 3 11 15
l24 21 25 -26 c19 -21 27 -24 38 -14 8 6 14 20 14 30 0 20 24 26 35 9 14 -22
22 -8 18 31 -4 33 -2 40 8 35 8 -4 7 -2 -2 6 -9 7 -17 18 -17 23 -1 6 -10 10
-19 10 -10 0 -23 3 -28 7 -6 3 -25 5 -42 4 -17 -1 -31 2 -30 7 3 14 -20 20
-28 8z"/>
<path d="M4236 3524 c-10 -25 1 -29 14 -5 6 12 7 21 1 21 -5 0 -12 -7 -15 -16z"/>
<path d="M4667 3503 c-2 -5 -1 -19 3 -33 7 -23 8 -24 15 -5 14 40 14 45 0 45
-7 0 -16 -3 -18 -7z"/>
<path d="M1128 3473 c7 -3 16 -2 19 1 4 3 -2 6 -13 5 -11 0 -14 -3 -6 -6z"/>
<path d="M956 3411 c-3 -5 0 -14 8 -20 10 -8 16 -8 25 3 9 11 8 15 -5 20 -20
8 -22 8 -28 -3z"/>
<path d="M1173 3409 c-34 -10 -43 -35 -21 -57 8 -8 5 -14 -15 -21 -37 -14 -23
-49 17 -42 5 1 16 -5 25 -12 9 -8 26 -13 38 -11 17 3 27 -4 39 -28 21 -41 50
-71 64 -66 7 2 -1 20 -19 46 -31 41 -38 62 -23 62 4 0 16 14 25 30 16 26 16
31 3 36 -8 3 -21 2 -27 -2 -9 -5 -10 -2 -6 9 7 19 -20 53 -48 60 -11 3 -35 1
-52 -4z"/>
<path d="M4260 3409 c0 -5 5 -7 10 -4 6 3 10 8 10 11 0 2 -4 4 -10 4 -5 0 -10
-5 -10 -11z"/>
<path d="M4855 3360 c-10 -11 -16 -20 -13 -20 3 0 15 9 28 20 13 11 19 20 13
20 -5 0 -18 -9 -28 -20z"/>
<path d="M4606 3361 c-4 -7 -5 -15 -2 -18 9 -9 19 4 14 18 -4 11 -6 11 -12 0z"/>
<path d="M1342 3318 c-17 -17 -15 -32 6 -51 27 -25 33 -21 27 16 -7 40 -17 51
-33 35z"/>
<path d="M4186 3265 c4 -9 13 -14 20 -11 8 3 14 -1 14 -9 0 -17 2 -17 24 -9
27 10 18 33 -13 32 -15 -1 -33 2 -39 6 -8 5 -10 1 -6 -9z"/>
<path d="M4345 3270 c3 -5 1 -10 -4 -10 -6 0 -11 -5 -11 -11 0 -8 5 -8 15 1
17 14 20 30 4 30 -5 0 -7 -4 -4 -10z"/>
<path d="M1400 3251 c0 -11 4 -21 9 -21 18 0 21 18 6 30 -13 10 -15 9 -15 -9z"/>
<path d="M4300 3251 c8 -16 6 -22 -7 -30 -10 -6 -13 -11 -7 -11 18 0 32 21 27
41 -3 10 -9 19 -15 19 -5 0 -4 -9 2 -19z"/>
<path d="M4834 3248 c-25 -12 -47 -51 -49 -88 -2 -26 50 -130 65 -130 13 0 17
31 9 62 -5 20 -1 40 15 70 39 76 20 116 -40 86z"/>
<path d="M1210 3220 c0 -11 4 -20 9 -20 11 0 22 26 14 34 -12 12 -23 5 -23
-14z"/>
<path d="M1330 3200 c0 -5 5 -10 11 -10 5 0 7 5 4 10 -3 6 -8 10 -11 10 -2 0
-4 -4 -4 -10z"/>
<path d="M4240 3200 c0 -5 7 -7 15 -4 8 4 15 8 15 10 0 2 -7 4 -15 4 -8 0 -15
-4 -15 -10z"/>
<path d="M840 3160 c0 -19 20 -27 33 -13 8 7 -11 33 -24 33 -5 0 -9 -9 -9 -20z"/>
<path d="M4690 3150 c0 -5 5 -10 10 -10 6 0 10 5 10 10 0 6 -4 10 -10 10 -5 0
-10 -4 -10 -10z"/>
<path d="M853 3109 c-16 -16 -5 -39 17 -39 25 0 35 18 20 35 -15 18 -22 19
-37 4z"/>
<path d="M948 3093 c-15 -19 0 -45 29 -49 24 -4 48 19 40 40 -8 20 -55 26 -69
9z"/>
<path d="M1210 3094 c0 -8 5 -12 10 -9 6 3 10 10 10 16 0 5 -4 9 -10 9 -5 0
-10 -7 -10 -16z"/>
<path d="M4640 3090 c-8 -5 -11 -12 -7 -16 4 -4 13 -2 19 4 15 15 7 24 -12 12z"/>
<path d="M4340 3070 c0 -5 5 -10 10 -10 6 0 10 5 10 10 0 6 -4 10 -10 10 -5 0
-10 -4 -10 -10z"/>
<path d="M4648 3040 c-7 -11 -20 -20 -28 -20 -15 0 -20 -18 -23 -100 -2 -42 0
-45 31 -54 40 -11 63 6 68 54 2 17 6 35 9 40 3 5 0 10 -7 12 -11 4 -20 29 -19
60 0 27 -17 31 -31 8z"/>
<path d="M940 3010 c-13 -8 -11 -12 7 -29 25 -24 39 -12 23 19 -12 23 -11 22
-30 10z"/>
<path d="M4366 3007 c-22 -16 -18 -46 7 -61 15 -9 22 -7 38 13 19 23 19 24 -2
42 -26 23 -21 22 -43 6z"/>
<path d="M1602 2999 c2 -6 8 -10 13 -10 5 0 11 4 13 10 2 6 -4 11 -13 11 -9 0
-15 -5 -13 -11z"/>
<path d="M1455 2990 c-3 -6 1 -13 10 -16 19 -8 30 0 20 15 -8 14 -22 14 -30 1z"/>
<path d="M1230 2980 c-8 -5 -10 -10 -5 -10 6 0 17 5 25 10 8 5 11 10 5 10 -5
0 -17 -5 -25 -10z"/>
<path d="M1467 2943 c-14 -13 -6 -33 12 -33 19 0 35 23 24 34 -8 8 -28 8 -36
-1z"/>
<path d="M4951 2941 c-8 -6 -9 -11 -3 -15 6 -3 14 -1 17 5 9 14 2 20 -14 10z"/>
<path d="M1655 2931 c-3 -5 -1 -12 5 -16 5 -3 10 1 10 9 0 18 -6 21 -15 7z"/>
<path d="M4990 2936 c0 -4 38 -14 119 -32 14 -3 29 -8 34 -11 5 -3 8 0 6 6 -3
7 -7 12 -9 12 -3 0 -23 4 -45 9 -62 15 -105 22 -105 16z"/>
<path d="M1525 2920 c3 -5 8 -10 11 -10 2 0 4 5 4 10 0 6 -5 10 -11 10 -5 0
-7 -4 -4 -10z"/>
<path d="M1846 2914 c-18 -17 -13 -36 7 -28 7 2 13 13 13 24 0 24 0 24 -20 4z"/>
<path d="M4331 2911 c-14 -26 12 -50 34 -31 20 17 19 27 -5 40 -15 8 -21 6
-29 -9z"/>
<path d="M1656 2891 c15 -14 78 -21 94 -11 18 11 20 11 -49 16 -30 2 -50 -1
-45 -5z"/>
<path d="M4185 2891 c6 -5 26 -12 45 -16 23 -5 32 -4 25 3 -5 5 -26 12 -45 16
-21 4 -31 3 -25 -3z"/>
<path d="M1482 2873 c-10 -4 -9 -8 5 -18 23 -17 48 -8 32 11 -12 15 -16 16
-37 7z"/>
<path d="M1357 2854 c-11 -11 3 -24 18 -18 8 4 12 10 9 15 -6 11 -18 12 -27 3z"/>
<path d="M4810 2840 c0 -5 5 -10 10 -10 6 0 10 5 10 10 0 6 -4 10 -10 10 -5 0
-10 -4 -10 -10z"/>
<path d="M4225 2803 c-16 -20 -31 -42 -33 -49 -2 -8 -8 -14 -13 -14 -5 0 -9
-4 -9 -9 0 -6 12 -6 31 -1 40 12 46 17 31 32 -18 18 -15 28 9 28 14 0 19 5 16
14 -3 7 0 19 6 25 6 6 7 11 2 11 -6 0 -23 -17 -40 -37z"/>
<path d="M1697 2816 c-3 -8 -2 -18 3 -21 13 -8 24 15 12 27 -6 6 -11 4 -15 -6z"/>
<path d="M1220 2800 c-14 -27 -3 -45 16 -26 16 16 19 46 4 46 -5 0 -14 -9 -20
-20z"/>
<path d="M1540 2814 c0 -13 18 -39 24 -34 2 3 -2 14 -10 24 -8 11 -14 16 -14
10z"/>
<path d="M1806 2793 c-6 -14 -5 -15 5 -6 7 7 10 15 7 18 -3 3 -9 -2 -12 -12z"/>
<path d="M4897 2793 c-4 -3 -7 -15 -7 -25 0 -19 21 -23 55 -8 16 7 16 9 4 9
-9 1 -19 8 -23 16 -6 16 -18 19 -29 8z"/>
<path d="M1764 2768 c-8 -12 24 -40 37 -32 5 3 9 13 9 22 0 15 -2 15 -10 2 -8
-13 -10 -12 -10 3 0 19 -15 23 -26 5z"/>
<path d="M1545 2740 c-3 -5 -4 -14 0 -19 8 -15 -4 -19 -80 -26 -83 -9 -88 -11
-75 -35 9 -17 19 -18 93 -13 45 3 94 6 110 7 15 0 27 4 27 8 0 3 24 9 53 13
72 9 87 14 87 30 0 17 -23 25 -52 19 -13 -2 -36 -7 -53 -9 -16 -3 -37 -8 -45
-10 -16 -5 -42 8 -41 19 3 18 0 26 -8 26 -6 0 -13 -4 -16 -10z"/>
<path d="M4630 2682 c0 -10 10 -24 23 -30 41 -22 177 -62 208 -62 26 0 30 3
27 22 -2 18 -16 25 -88 44 -47 12 -98 27 -113 33 -40 16 -57 14 -57 -7z"/>
<path d="M4951 2681 c-8 -14 -7 -22 2 -30 16 -13 37 4 37 31 0 24 -27 23 -39
-1z"/>
<path d="M4572 2682 c-17 -5 -15 -39 3 -46 19 -7 37 25 21 40 -6 6 -17 9 -24
6z"/>
<path d="M4413 2493 c-7 -2 -13 -13 -13 -23 0 -14 9 -21 33 -24 17 -3 61 -10
97 -16 36 -7 72 -12 80 -12 8 0 20 -5 27 -10 17 -14 93 1 93 17 0 7 -6 16 -12
18 -30 12 20 6 65 -8 33 -10 47 -11 45 -3 -2 6 -11 12 -19 13 -12 2 -88 18
-149 32 -73 16 -223 26 -247 16z"/>
<path d="M100 2480 c-13 -8 -12 -10 3 -10 9 0 17 5 17 10 0 12 -1 12 -20 0z"/>
<path d="M1555 2450 c-8 -13 5 -13 25 0 13 8 13 10 -2 10 -9 0 -20 -4 -23 -10z"/>
<path d="M4213 2453 c-20 -7 -15 -41 7 -53 15 -8 21 -6 30 9 18 35 -2 59 -37
44z"/>
<path d="M4285 2421 c-7 -12 12 -24 25 -16 11 7 4 25 -10 25 -5 0 -11 -4 -15
-9z"/>
<path d="M1760 2400 c-9 -6 -10 -10 -3 -10 6 0 15 5 18 10 8 12 4 12 -15 0z"/>
<path d="M4768 2388 c12 -12 122 -38 122 -29 0 4 -30 14 -66 23 -36 9 -61 11
-56 6z"/>
<path d="M4183 2364 c-3 -8 0 -21 6 -27 10 -9 16 -8 27 7 11 16 11 22 1 28
-18 12 -27 10 -34 -8z"/>
<path d="M4060 2351 c24 -14 66 -25 55 -13 -5 5 -23 12 -40 16 -20 4 -25 3
-15 -3z"/>
<path d="M585 2340 c-3 -5 -2 -10 4 -10 5 0 13 5 16 10 3 6 2 10 -4 10 -5 0
-13 -4 -16 -10z"/>
<path d="M1215 2330 c3 -5 8 -10 11 -10 2 0 4 5 4 10 0 6 -5 10 -11 10 -5 0
-7 -4 -4 -10z"/>
<path d="M4216 2322 c-3 -6 -1 -14 5 -17 15 -10 25 3 12 16 -7 7 -13 7 -17 1z"/>
<path d="M4567 2324 c-8 -8 1 -24 14 -24 5 0 9 7 9 15 0 15 -12 20 -23 9z"/>
<path d="M1555 2310 c-3 -5 -1 -10 4 -10 6 0 11 5 11 10 0 6 -2 10 -4 10 -3 0
-8 -4 -11 -10z"/>
<path d="M4010 2310 c-21 -13 -5 -35 27 -35 23 0 29 4 25 17 -5 19 -34 29 -52
18z"/>
<path d="M1713 2298 c2 -7 10 -13 17 -13 7 0 15 6 18 13 2 7 -5 12 -18 12 -13
0 -20 -5 -17 -12z"/>
<path d="M4106 2291 c-12 -13 -14 -21 -6 -26 14 -8 15 -7 24 23 9 27 4 28 -18
3z"/>
<path d="M4375 2260 c-11 -17 5 -32 21 -19 7 6 11 15 8 20 -7 12 -21 11 -29
-1z"/>
<path d="M4682 2251 c-15 -9 -13 -42 3 -48 20 -6 37 14 30 36 -7 23 -13 25
-33 12z"/>
<path d="M4057 2230 c-3 -13 0 -20 8 -20 26 0 44 12 38 26 -8 21 -40 17 -46
-6z"/>
<path d="M1809 2207 c-7 -12 -17 -25 -23 -29 -6 -4 -11 -21 -11 -37 -1 -17 1
-28 4 -26 7 8 31 -17 31 -33 0 -8 -7 -20 -15 -26 -9 -6 -17 -27 -20 -46 -2
-19 -12 -40 -22 -47 -46 -32 -47 -35 -19 -60 33 -28 46 -29 46 -5 0 15 7 18
40 16 50 -2 64 -13 78 -61 17 -59 18 -243 1 -270 -12 -20 -12 -25 3 -39 15
-16 18 -15 43 12 15 16 33 28 41 26 8 -2 14 2 14 8 0 6 4 9 9 6 15 -10 30 18
44 84 8 36 18 74 22 85 4 11 -4 2 -20 -20 -15 -22 -35 -49 -45 -60 -9 -11 -20
-28 -23 -37 -4 -11 -17 -18 -32 -18 -23 0 -25 4 -25 43 0 23 4 58 9 77 5 25 2
64 -10 125 -10 50 -20 115 -21 147 -2 31 -5 56 -8 55 -3 -1 -15 4 -26 11 -12
6 -24 9 -27 6 -3 -3 -11 -3 -17 1 -11 7 38 52 52 48 4 -2 5 4 2 12 -4 8 -2 15
3 15 8 0 9 18 4 50 -1 3 -17 6 -36 7 -27 2 -37 -2 -46 -20z"/>
<path d="M4120 2200 c-16 -16 -18 -25 -10 -40 11 -21 40 -28 40 -9 0 5 4 8 9
5 5 -3 15 2 22 11 8 9 9 14 3 10 -11 -7 -46 28 -37 37 4 3 3 6 0 6 -4 0 -16
-9 -27 -20z"/>
<path d="M950 2190 c0 -5 5 -10 11 -10 5 0 7 5 4 10 -3 6 -8 10 -11 10 -2 0
-4 -4 -4 -10z"/>
<path d="M600 2170 c0 -5 5 -10 11 -10 5 0 7 5 4 10 -3 6 -8 10 -11 10 -2 0
-4 -4 -4 -10z"/>
<path d="M1488 2163 c-20 -5 -32 -33 -19 -46 13 -13 61 21 54 39 -5 14 -7 15
-35 7z"/>
<path d="M4428 2163 c7 -3 16 -2 19 1 4 3 -2 6 -13 5 -11 0 -14 -3 -6 -6z"/>
<path d="M1402 2108 c-18 -18 -14 -36 9 -43 14 -5 27 -1 38 10 15 15 15 17 -3
31 -24 17 -29 17 -44 2z"/>
<path d="M4467 2090 c-9 -16 -11 -30 -6 -30 5 0 9 5 9 10 0 6 7 10 15 10 16 0
21 25 6 35 -5 3 -16 -8 -24 -25z"/>
<path d="M1740 2090 c-20 -12 -10 -19 14 -10 11 3 15 9 10 13 -6 3 -16 2 -24
-3z"/>
<path d="M4536 2062 c-3 -6 -1 -14 5 -17 15 -10 25 3 12 16 -7 7 -13 7 -17 1z"/>
<path d="M1220 2023 c-8 -4 -20 -11 -26 -17 -6 -6 -41 -36 -77 -66 -69 -58
-78 -73 -49 -86 26 -11 37 -7 75 29 18 17 55 52 81 75 26 24 45 49 43 55 -4
14 -26 18 -47 10z"/>
<path d="M1655 2000 c-3 -5 -2 -16 2 -24 11 -20 38 -3 30 18 -7 18 -23 21 -32
6z"/>
<path d="M4473 1999 c-12 -12 -5 -49 10 -49 5 0 16 -8 23 -17 12 -17 13 -16
14 4 0 28 -17 73 -28 73 -4 0 -13 -5 -19 -11z"/>
<path d="M580 1951 c-19 -9 -62 -27 -95 -39 -63 -24 -95 -47 -95 -68 0 -29 76
-14 97 19 4 7 28 25 53 40 85 50 112 83 40 48z"/>
<path d="M1025 1930 c-115 -49 -125 -56 -125 -80 0 -27 50 -27 75 0 11 12 46
39 79 62 72 48 70 47 65 52 -2 2 -44 -13 -94 -34z"/>
<path d="M4020 1961 c0 -5 5 -13 10 -16 6 -3 10 -2 10 4 0 5 -4 13 -10 16 -5
3 -10 2 -10 -4z"/>
<path d="M2340 1940 c0 -5 -6 -7 -13 -4 -8 3 -20 -2 -27 -11 -8 -9 -8 -15 -2
-15 6 0 14 5 17 10 4 7 19 -2 38 -20 48 -46 78 -25 33 23 -25 27 -46 35 -46
17z"/>
<path d="M2210 1921 c0 -24 40 -55 54 -41 12 12 -19 60 -39 60 -8 0 -15 -9
-15 -19z"/>
<path d="M3289 1828 c-1 -7 -1 -19 0 -27 2 -7 -2 -10 -8 -7 -5 4 -13 2 -16 -4
-4 -6 -15 -8 -25 -5 -22 7 -38 -14 -19 -26 8 -5 15 -4 17 1 5 15 22 12 22 -4
0 -8 -11 -17 -25 -20 -15 -4 -27 -16 -31 -31 -3 -14 -10 -25 -15 -25 -5 0 -9
-6 -9 -14 0 -17 79 -29 97 -14 15 12 18 68 3 68 -5 0 -10 5 -10 10 0 6 9 10
19 10 22 0 33 21 21 41 -5 8 -5 19 1 26 11 13 4 33 -12 33 -5 0 -10 -6 -10
-12z"/>
<path d="M4667 1816 c-8 -19 50 -73 64 -59 7 7 2 20 -16 42 -29 34 -40 38 -48
17z"/>
<path d="M1520 1813 c-57 -17 -73 -40 -84 -121 -4 -24 -16 -57 -28 -73 -19
-26 -20 -31 -8 -40 11 -8 10 -9 -7 -4 -14 4 -23 2 -23 -4 0 -17 -76 -51 -127
-57 -77 -10 -109 -42 -77 -74 31 -31 98 -9 150 47 12 13 25 23 29 23 14 0 54
37 47 44 -3 4 0 5 8 1 9 -3 29 5 46 17 108 80 134 101 134 114 0 8 5 14 10 14
11 0 13 33 4 68 -7 25 -51 52 -74 45z m-59 -106 c-10 -9 -11 -8 -5 6 3 10 9
15 12 12 3 -3 0 -11 -7 -18z m-271 -247 c0 -5 -2 -10 -4 -10 -3 0 -8 5 -11 10
-3 6 -1 10 4 10 6 0 11 -4 11 -10z"/>
<path d="M2137 1813 c-4 -3 -7 -15 -7 -25 0 -26 46 -25 53 1 3 11 2 22 -1 25
-7 8 -37 7 -45 -1z"/>
<path d="M2380 1801 c0 -12 5 -21 10 -21 6 0 10 6 10 14 0 8 -4 18 -10 21 -5
3 -10 -3 -10 -14z"/>
<path d="M4540 1806 c0 -19 27 -46 45 -46 18 0 9 30 -13 48 -21 16 -32 15 -32
-2z"/>
<path d="M2726 1802 c-3 -6 -1 -14 5 -17 14 -9 20 -2 10 14 -6 8 -11 9 -15 3z"/>
<path d="M2839 1805 c-1 -16 -7 -38 -23 -80 -9 -27 -11 -46 -5 -57 13 -23 41
-23 56 1 15 23 6 111 -13 131 -8 8 -14 10 -15 5z"/>
<path d="M923 1793 c-15 -5 -17 -29 -4 -37 14 -9 41 4 41 19 0 15 -19 24 -37
18z"/>
<path d="M2570 1773 c0 -6 -17 -33 -37 -60 -63 -81 -76 -114 -53 -128 25 -15
55 26 76 107 12 46 20 85 18 87 -2 2 -4 -1 -4 -6z"/>
<path d="M2443 1744 c-9 -23 11 -38 26 -20 13 16 7 36 -10 36 -5 0 -12 -7 -16
-16z"/>
<path d="M2310 1725 c0 -8 5 -15 10 -15 6 0 10 7 10 15 0 8 -4 15 -10 15 -5 0
-10 -7 -10 -15z"/>
<path d="M3723 1725 c4 -5 0 -16 -8 -24 -11 -14 -12 -21 -2 -41 16 -33 57 -38
75 -10 13 22 8 45 -9 35 -5 -4 -9 -3 -9 2 0 4 -13 17 -28 27 -15 11 -24 16
-19 11z"/>
<path d="M828 1713 c-10 -2 -18 -9 -18 -14 0 -14 16 -11 30 6 7 8 11 14 9 14
-2 -1 -12 -3 -21 -6z"/>
<path d="M4110 1694 c0 -8 5 -12 10 -9 6 4 8 11 5 16 -9 14 -15 11 -15 -7z"/>
<path d="M2356 1672 c-3 -6 -1 -14 5 -17 15 -10 25 3 12 16 -7 7 -13 7 -17 1z"/>
<path d="M1950 1660 c-13 -8 -12 -10 3 -10 9 0 17 5 17 10 0 12 -1 12 -20 0z"/>
<path d="M3435 1661 c-8 -14 37 -43 48 -32 15 15 0 41 -22 41 -11 0 -22 -4
-26 -9z"/>
<path d="M2877 1633 c-4 -10 -14 -28 -23 -40 -15 -21 -15 -23 0 -23 9 0 17 5
17 10 3 19 5 25 17 48 7 12 9 22 4 22 -6 0 -12 -8 -15 -17z"/>
<path d="M3103 1634 c-8 -20 8 -36 26 -25 15 10 8 41 -9 41 -6 0 -13 -7 -17
-16z"/>
<path d="M3150 1620 c0 -5 5 -10 10 -10 6 0 10 5 10 10 0 6 -4 10 -10 10 -5 0
-10 -4 -10 -10z"/>
<path d="M3600 1620 c0 -5 5 -10 10 -10 6 0 10 5 10 10 0 6 -4 10 -10 10 -5 0
-10 -4 -10 -10z"/>
<path d="M3780 1595 c0 -8 2 -15 4 -15 2 0 6 7 10 15 3 8 1 15 -4 15 -6 0 -10
-7 -10 -15z"/>
<path d="M4075 1601 c-3 -5 -1 -12 5 -16 5 -3 10 1 10 9 0 18 -6 21 -15 7z"/>
<path d="M2223 1583 c-18 -7 -16 -30 4 -37 19 -8 48 17 39 33 -7 11 -22 13
-43 4z"/>
<path d="M3105 1570 c1 -10 13 -15 32 -15 25 0 28 3 20 16 -13 21 -55 20 -52
-1z"/>
<path d="M3455 1571 c-7 -12 12 -24 25 -16 11 7 4 25 -10 25 -5 0 -11 -4 -15
-9z"/>
<path d="M3540 1543 c0 -42 28 -95 49 -91 10 2 16 13 16 28 0 15 -5 24 -12 23
-7 -2 -13 2 -13 8 0 6 -9 22 -20 36 l-20 26 0 -30z"/>
<path d="M1610 1549 c0 -5 5 -7 10 -4 6 3 10 8 10 11 0 2 -4 4 -10 4 -5 0 -10
-5 -10 -11z"/>
<path d="M3890 1545 c0 -8 4 -15 10 -15 5 0 7 7 4 15 -4 8 -8 15 -10 15 -2 0
-4 -7 -4 -15z"/>
<path d="M4690 1546 c0 -9 5 -16 10 -16 6 0 10 4 10 9 0 6 -4 13 -10 16 -5 3
-10 -1 -10 -9z"/>
<path d="M3427 1543 c-11 -10 -8 -53 2 -53 14 0 41 41 35 52 -6 10 -28 11 -37
1z"/>
<path d="M3800 1538 c0 -9 5 -20 11 -23 17 -11 18 -2 3 19 -12 17 -14 17 -14
4z"/>
<path d="M2001 1518 c-5 -13 -5 -27 0 -33 12 -12 54 29 45 44 -12 18 -36 12
-45 -11z"/>
<path d="M2382 1515 c12 -27 28 -34 28 -12 0 14 -20 37 -32 37 -4 0 -2 -11 4
-25z"/>
<path d="M4345 1531 c-7 -12 12 -24 25 -16 11 7 4 25 -10 25 -5 0 -11 -4 -15
-9z"/>
<path d="M4830 1519 c-8 -15 -7 -21 4 -25 19 -7 36 3 36 21 0 22 -29 26 -40 4z"/>
<path d="M2435 1520 c-3 -5 -2 -10 4 -10 5 0 13 5 16 10 3 6 2 10 -4 10 -5 0
-13 -4 -16 -10z"/>
<path d="M3752 1518 c-16 -16 -15 -28 2 -28 7 0 16 9 19 20 6 23 -3 26 -21 8z"/>
<path d="M830 1505 c0 -16 16 -20 24 -6 3 5 -1 11 -9 15 -9 3 -15 0 -15 -9z"/>
<path d="M1727 1496 c-7 -19 18 -42 28 -26 8 13 -1 40 -14 40 -5 0 -11 -6 -14
-14z"/>
<path d="M1980 1460 c-8 -5 -12 -11 -9 -14 3 -3 14 1 25 9 21 16 8 20 -16 5z"/>
<path d="M3807 1443 c-12 -11 -8 -23 8 -23 8 0 15 7 15 15 0 16 -12 20 -23 8z"/>
<path d="M460 1417 c-47 -21 -182 -126 -201 -155 -14 -24 -15 -33 -6 -46 11
-15 16 -14 50 4 22 12 56 38 77 58 20 20 56 54 79 74 55 49 56 89 1 65z"/>
<path d="M959 1417 c-45 -20 -59 -38 -59 -73 0 -19 3 -34 8 -34 16 0 92 83 92
101 0 22 -4 22 -41 6z"/>
<path d="M4339 1418 c-7 -15 -6 -58 1 -58 13 0 40 42 34 52 -5 7 -32 12 -35 6z"/>
<path d="M4710 1409 c0 -20 16 -43 23 -32 3 4 -1 17 -9 28 -10 13 -14 15 -14
4z"/>
<path d="M2074 1365 c-43 -65 -49 -149 -13 -160 23 -7 58 28 60 60 0 11 3 34
4 50 9 71 -19 98 -51 50z"/>
<path d="M3410 1380 c0 -13 18 -22 24 -11 3 5 -1 11 -9 15 -8 3 -15 1 -15 -4z"/>
<path d="M2800 1370 c0 -5 5 -10 10 -10 6 0 10 5 10 10 0 6 -4 10 -10 10 -5 0
-10 -4 -10 -10z"/>
<path d="M1249 1358 c-6 -20 -6 -39 0 -43 13 -7 45 21 37 33 -6 10 -34 17 -37
10z"/>
<path d="M2450 1346 c0 -13 20 -26 41 -26 5 0 9 9 9 20 0 15 -7 20 -25 20 -15
0 -25 -6 -25 -14z"/>
<path d="M3353 1335 c-6 -14 -7 -25 -2 -25 5 0 9 5 9 10 0 6 7 10 15 10 8 0
15 7 15 15 0 24 -24 17 -37 -10z"/>
<path d="M3426 1312 c-3 -6 -1 -14 5 -17 15 -10 25 3 12 16 -7 7 -13 7 -17 1z"/>
<path d="M1990 1255 c0 -8 5 -15 10 -15 6 0 10 7 10 15 0 8 -4 15 -10 15 -5 0
-10 -7 -10 -15z"/>
<path d="M3361 1242 c-12 -22 32 -77 54 -68 16 6 21 26 6 26 -5 0 -12 11 -15
24 -7 30 -33 41 -45 18z"/>
<path d="M2172 1210 c-26 -24 -28 -55 -7 -76 36 -36 80 20 56 72 -13 29 -21
30 -49 4z"/>
<path d="M2672 1207 c-26 -27 -28 -52 -7 -73 36 -36 80 20 56 72 -13 30 -22
30 -49 1z"/>
<path d="M4217 1217 c-3 -8 -1 -20 4 -28 8 -12 12 -11 24 5 8 10 12 23 9 27
-8 14 -31 11 -37 -4z"/>
<path d="M3512 1181 c-17 -10 -4 -41 14 -34 15 6 19 29 6 37 -4 2 -14 1 -20
-3z"/>
<path d="M3556 1071 c-4 -5 6 -23 20 -40 21 -26 29 -29 41 -20 12 10 10 16
-13 41 -29 30 -39 34 -48 19z"/>
<path d="M3223 1054 c-8 -21 13 -42 28 -27 13 13 5 43 -11 43 -6 0 -13 -7 -17
-16z"/>
<path d="M3434 1059 c-7 -12 35 -61 47 -53 11 6 -10 52 -27 58 -7 3 -16 0 -20
-5z"/>
<path d="M1725 1018 l-30 -31 33 19 c17 10 32 24 32 31 0 17 -1 17 -35 -19z"/>
<path d="M3510 1046 c0 -9 30 -14 35 -6 4 6 -3 10 -14 10 -12 0 -21 -2 -21 -4z"/>
<path d="M2520 1004 c0 -8 5 -12 10 -9 6 4 8 11 5 16 -9 14 -15 11 -15 -7z"/>
<path d="M3420 984 c0 -8 5 -12 10 -9 6 4 8 11 5 16 -9 14 -15 11 -15 -7z"/>
<path d="M2000 974 c0 -8 5 -12 10 -9 6 4 8 11 5 16 -9 14 -15 11 -15 -7z"/>
<path d="M2385 980 c-3 -5 -1 -10 4 -10 6 0 11 5 11 10 0 6 -2 10 -4 10 -3 0
-8 -4 -11 -10z"/>
<path d="M4330 860 c0 -5 5 -10 11 -10 5 0 7 5 4 10 -3 6 -8 10 -11 10 -2 0
-4 -4 -4 -10z"/>
<path d="M1690 810 c0 -5 5 -10 10 -10 6 0 10 5 10 10 0 6 -4 10 -10 10 -5 0
-10 -4 -10 -10z"/>
<path d="M3580 796 c0 -9 5 -16 10 -16 6 0 10 4 10 9 0 6 -4 13 -10 16 -5 3
-10 -1 -10 -9z"/>
<path d="M3237 784 c-4 -4 -4 -10 -1 -15 6 -10 34 0 34 12 0 10 -24 12 -33 3z"/>
<path d="M3138 740 c2 -16 8 -30 12 -30 14 0 20 44 7 52 -20 13 -24 9 -19 -22z"/>
<path d="M4025 690 c3 -5 8 -10 11 -10 2 0 4 5 4 10 0 6 -5 10 -11 10 -5 0 -7
-4 -4 -10z"/>
<path d="M3224 645 c-4 -14 -3 -29 1 -33 9 -9 47 37 39 49 -11 18 -34 8 -40
-16z"/>
<path d="M3601 664 c1 -21 16 -47 21 -38 4 5 0 18 -8 29 -8 10 -14 15 -13 9z"/>
<path d="M3220 110 c0 -5 5 -10 11 -10 5 0 7 5 4 10 -3 6 -8 10 -11 10 -2 0
-4 -4 -4 -10z"/>
</g>
</svg>
